<svg xmlns:inkscape="http://www.inkscape.org/namespaces/inkscape" xmlns:sodipodi="http://sodipodi.sourceforge.net/DTD/sodipodi-0.dtd" xmlns="http://www.w3.org/2000/svg" xmlns:svg="http://www.w3.org/2000/svg" width="5.4509997mm" height="7.1495314mm" viewBox="0 0 5.4509997 7.1495314" version="1.1" id="svg1" xml:space="preserve" sodipodi:docname="automatic-save-0-2024_10_04_01_42_32-29676-1.svg" inkscape:version="1.3 (0e150ed6c4, 2023-07-21)"><sodipodi:namedview id="namedview1" pagecolor="#ffffff" bordercolor="#666666" borderopacity="1.0" inkscape:showpageshadow="2" inkscape:pageopacity="0.0" inkscape:pagecheckerboard="0" inkscape:deskcolor="#d1d1d1" inkscape:document-units="mm" inkscape:zoom="2.7188833" inkscape:cx="217.55255" inkscape:cy="421.68048" inkscape:window-width="1920" inkscape:window-height="1001" inkscape:window-x="-9" inkscape:window-y="-9" inkscape:window-maximized="1" inkscape:current-layer="layer1"/><defs id="defs1"/><g inkscape:label="Layer 1" inkscape:groupmode="layer" id="layer1" style="display:inline" transform="translate(-56.674054,-131.23534)"><g id="g11" transform="matrix(0.07984956,0,0,0.07984956,48.218382,73.826344)"><path id="path11" style="fill:#2ba000;fill-opacity:1" d="m 140.02788,718.96447 c -6.94461,4.40351 -14.33936,8.72218 -22.7463,9.22476 -3.78871,0.34841 -7.60598,0.29727 -11.38653,0.74777 0.0482,5.9967 0.013,20.08195 0.0819,30.08135 -0.004,0.80297 4.1e-4,1.60693 -0.0135,2.40903 -0.1203,1.87327 -0.0685,3.74118 0.11984,5.59355 6.1e-4,0.0235 7.1e-4,0.0725 10e-4,0.0957 0.002,-3e-5 0.004,-0.003 0.007,-0.003 0.3532,3.38625 1.18338,6.71728 2.38988,9.9174 5.10759,14.24952 17.45125,24.54813 30.64258,31.09389 0.26448,0.22605 0.57777,0.34094 0.90426,0.37702 0.3265,-0.0361 0.63977,-0.15097 0.90425,-0.37702 13.19134,-6.54576 25.53697,-16.84437 30.64456,-31.09389 1.2065,-3.20012 2.03668,-6.53115 2.38989,-9.9174 0.002,1.6e-4 0.004,0.003 0.007,0.003 6.1e-4,-0.0234 7.1e-4,-0.0728 10e-4,-0.0964 0.18829,-1.85215 0.2398,-3.71984 0.11951,-5.59289 -0.0138,-0.79617 -0.0102,-1.59418 -0.0139,-2.39121 0.0685,-10.00067 0.0323,-24.09815 0.0806,-30.09917 -3.78055,-0.4505 -7.59816,-0.39936 -11.38685,-0.74777 -8.40695,-0.50258 -15.80136,-4.82125 -22.74597,-9.22476 z m 0,2.69526 c 0.1089,-3e-4 0.21909,0.002 0.33014,0.008 4.10175,2.45284 8.22491,5.0477 12.83385,6.4998 5.96772,2.31105 12.4158,2.06166 18.64662,2.963 0.34107,8.12667 0.2017,16.26212 0.30241,24.39337 -0.006,0.0631 -0.006,0.15367 -0.0135,0.21426 -0.0889,7.99465 0.0501,16.17453 -3.49816,23.51552 -3.45742,8.21547 -9.99678,14.54325 -16.67173,20.20489 -3.30229,2.60316 -7.06066,4.57099 -10.38488,7.12706 -0.41354,0.36545 -0.95099,0.50834 -1.54472,0.50577 -0.59373,0.003 -1.13152,-0.14032 -1.54506,-0.50577 -3.32421,-2.55607 -7.0826,-4.5239 -10.38487,-7.12706 -6.67497,-5.66164 -13.21234,-11.98942 -16.66975,-20.20489 -3.54825,-7.34099 -3.41124,-15.52087 -3.50014,-23.51552 -0.007,-0.0598 -0.007,-0.14929 -0.0132,-0.21162 0.10077,-8.13212 -0.0387,-16.26847 0.30241,-24.39601 6.23082,-0.90134 12.68055,-0.65195 18.64827,-2.963 4.60894,-1.4521 8.73045,-4.04696 12.83221,-6.4998 0.11105,-0.006 0.22125,-0.008 0.33014,-0.008 z m 0,2.20137 c -3.4475,1.94611 -6.74632,4.31526 -10.56052,5.58762 -6.23598,2.48632 -12.93999,3.07743 -19.58025,3.38492 -0.0249,5.06446 -0.0494,10.1289 -0.0743,15.19336 0.24656,8.4293 -0.88374,17.09277 1.51568,25.30456 3.95563,13.8195 15.46911,23.94056 27.66406,30.68385 0.33601,0.19512 0.6722,0.39763 1.03532,0.53879 0.36313,-0.14116 0.70096,-0.34367 1.03697,-0.53879 12.19494,-6.74329 23.70645,-16.86435 27.66208,-30.68385 2.39942,-8.21179 1.26911,-16.87526 1.51567,-25.30456 -0.0249,-5.06446 -0.0494,-10.1289 -0.0743,-15.19336 -6.64027,-0.30749 -13.34396,-0.8986 -19.57993,-3.38492 -3.8142,-1.27236 -7.11301,-3.64151 -10.56051,-5.58762 z m -32.24608,29.53431 c 7.5e-4,0.006 10e-4,0.007 0.002,0.0125 2.3e-4,0.01 -2.2e-4,0.0169 0,0.0264 -5.1e-4,-0.0128 -0.001,-0.0262 -0.002,-0.0389 z m 64.49182,0.003 c -3.9e-4,0.01 -0.001,0.02 -0.002,0.0297 1.7e-4,-0.007 -1.8e-4,-0.0128 0,-0.0201 5.7e-4,-0.004 10e-4,-0.005 0.002,-0.01 z"/></g><g transform="matrix(0.00171545,0,0,-0.00171545,55.022582,138.97217)" fill="#000000" stroke="none" id="g74" style="fill:#ffffff"><path d="m 2541,3972 c -38,-76 -40,-124 -6,-157 13,-14 29,-25 35,-25 6,0 10,-38 10,-102 v -103 l -26,43 c -14,24 -28,41 -30,39 -3,-2 11,-41 31,-86 31,-73 35,-93 34,-164 0,-92 -29,-268 -44,-268 -5,0 -19,35 -31,78 -12,43 -40,116 -63,163 -41,82 -42,88 -38,160 3,47 12,92 26,120 25,54 27,97 5,128 -16,23 -92,67 -101,59 -2,-3 9,-20 25,-38 16,-19 32,-49 35,-66 7,-37 1,-42 -19,-15 -11,15 -12,12 -4,-17 13,-45 4,-52 -25,-19 -15,18 -21,35 -19,55 l 4,28 -11,-28 c -13,-33 6,-70 52,-95 19,-12 27,-22 23,-34 -3,-9 -11,-45 -18,-78 -11,-58 -13,-60 -23,-37 -7,14 -17,54 -23,89 -7,35 -20,83 -30,108 -11,25 -24,65 -31,90 l -12,45 -28,-85 c -31,-90 -36,-138 -18,-173 7,-12 48,-60 93,-107 79,-83 90,-99 140,-210 30,-69 40,-166 31,-321 -7,-117 -8,-118 -26,-95 -15,19 -17,29 -8,57 5,19 13,82 16,140 6,114 -5,190 -34,222 -9,9 -12,17 -8,17 5,0 -15,23 -43,50 -59,58 -82,62 -155,27 l -47,-23 41,-23 c 36,-20 50,-23 104,-18 71,7 82,0 109,-65 32,-76 30,-245 -4,-298 -11,-17 3,-23 -152,70 -80,48 -88,55 -88,84 l -1,31 -13,-24 -13,-24 -22,22 c -35,35 -61,101 -61,157 0,46 -26,161 -35,152 -5,-5 13,-206 21,-232 6,-20 5,-20 -21,4 -15,14 -36,42 -46,63 -18,33 -18,39 -5,53 26,25 30,82 12,140 -9,30 -18,54 -19,54 -2,0 -3,-33 -2,-72 0,-40 -5,-81 -11,-91 -9,-16 -14,-11 -34,42 l -22,60 31,40 c 47,60 44,104 -15,176 -26,31 -49,53 -53,48 -4,-4 -15,-34 -26,-66 l -19,-59 -27,33 c -34,42 -47,33 -20,-12 12,-19 21,-51 21,-73 v -39 l -21,19 -21,19 16,-40 c 11,-25 13,-41 6,-43 -5,-2 -10,-11 -10,-20 0,-12 -6,-10 -26,9 -24,22 -26,29 -21,79 3,30 12,74 20,98 8,23 12,44 8,46 -3,2 -17,-31 -30,-74 -28,-93 -24,-134 19,-180 35,-37 78,-39 95,-3 10,20 13,17 33,-37 l 21,-59 -25,9 c -14,6 -37,10 -52,9 -21,0 -17,-4 19,-15 31,-9 48,-21 52,-34 8,-29 -24,-26 -64,7 l -32,27 16,-30 c 20,-39 39,-55 72,-58 25,-3 44,-20 45,-38 0,-5 -15,-8 -32,-9 -18,0 -42,-4 -53,-9 -18,-8 -17,-9 7,-9 34,-1 46,-18 16,-24 -13,-3 -3,-3 22,-2 24,2 46,8 48,14 2,7 12,7 29,0 14,-5 28,-8 30,-5 2,2 -13,39 -35,82 -37,75 -132,288 -132,297 0,2 16,-11 36,-29 24,-24 42,-55 59,-105 46,-135 155,-277 249,-326 54,-28 8,-27 -54,1 -47,21 -86,29 -182,37 -166,13 -216,23 -273,53 -26,14 -55,26 -64,26 -8,0 -24,11 -36,25 -14,18 -34,27 -67,31 -58,8 -61,-2 -14,-53 31,-34 36,-36 60,-25 32,14 56,15 76,2 23,-14 2,-28 -60,-40 -30,-6 -63,-19 -73,-29 -18,-18 -17,-18 55,-20 63,-1 80,2 109,22 29,19 41,22 78,15 56,-10 82,-34 116,-111 16,-34 37,-75 48,-91 l 20,-28 -23,7 c -12,4 -50,7 -84,6 -42,0 -56,2 -46,9 10,6 3,7 -22,3 -28,-4 -38,-2 -38,7 0,10 -5,9 -17,-2 -10,-9 -27,-18 -38,-22 -11,-3 -43,-26 -70,-51 l -50,-44 60,-2 c 111,-5 108,-6 176,79 8,10 23,11 53,7 71,-12 104,-32 175,-104 68,-69 69,-71 41,-71 -48,0 -82,19 -143,78 -58,57 -58,57 -46,22 15,-43 35,-68 74,-87 16,-9 32,-19 35,-23 3,-4 35,-5 71,-2 l 66,4 -71,72 c -39,39 -77,85 -85,101 -8,17 -24,50 -37,75 -12,25 -28,68 -35,95 -7,28 -17,54 -23,58 -6,5 9,5 34,1 25,-3 46,-8 48,-9 2,-2 3,-31 4,-66 1,-89 46,-170 134,-240 51,-41 55,-28 7,24 -22,24 -52,64 -67,89 -26,44 -69,178 -60,187 4,5 156,-27 163,-34 2,-3 -11,-5 -30,-6 -27,0 -30,-2 -14,-8 19,-8 19,-8 -4,-20 -13,-7 -34,-11 -47,-8 -24,4 -24,4 -7,-15 22,-24 57,-17 96,20 25,24 30,25 59,14 113,-42 242,-162 278,-259 23,-61 21,-102 -7,-156 l -15,-29 -26,25 c -15,14 -65,48 -112,74 -76,44 -88,54 -110,100 -28,59 -43,77 -39,48 2,-11 0,-25 -4,-32 -15,-25 19,-66 100,-118 45,-30 118,-89 160,-131 43,-43 64,-65 47,-51 -48,43 -48,32 1,-28 75,-93 115,-196 115,-295 -1,-57 -11,-41 -39,65 -49,177 -167,327 -323,411 l -76,41 -97,-18 c -52,-10 -102,-16 -110,-12 -8,3 -15,0 -15,-7 0,-6 -4,-9 -9,-6 -8,5 -240,-50 -250,-59 -2,-3 17,-5 43,-5 29,0 45,-4 41,-10 -3,-5 -31,-10 -61,-10 -71,0 -109,-17 -160,-72 l -41,-44 41,-17 c 106,-44 188,-3 210,103 6,27 33,48 80,61 l 31,9 -25,-21 c -14,-11 -19,-17 -11,-13 16,8 16,7 -22,-101 -14,-38 -23,-72 -21,-74 1,-2 19,7 40,19 58,37 74,94 48,182 -4,13 5,18 38,23 24,3 52,9 63,12 16,4 12,-3 -14,-30 -27,-28 -37,-50 -46,-101 -7,-37 -9,-66 -4,-66 5,0 24,14 44,32 41,36 75,95 75,132 0,33 43,56 105,56 61,0 134,-38 207,-108 86,-82 132,-161 151,-260 l 7,-34 -38,30 c -50,40 -156,98 -223,121 -30,10 -63,22 -73,27 -40,16 17,-56 79,-101 33,-23 69,-53 80,-65 l 20,-23 -30,16 c -89,45 -245,41 -354,-9 -46,-21 -63,-23 -116,-18 -66,7 -103,-5 -138,-44 -17,-19 -17,-20 23,-36 70,-28 108,-22 152,25 23,24 64,52 101,67 53,23 76,27 163,27 h 101 l 90,-47 c 50,-26 94,-44 98,-40 5,4 6,3 3,-3 -3,-5 5,-18 19,-29 25,-18 25,-18 13,4 -39,73 57,-44 102,-125 19,-33 24,-130 8,-155 -7,-11 -10,2 -11,45 -1,33 -5,74 -9,90 -7,26 -8,23 -8,-20 -1,-27 3,-72 7,-98 4,-26 4,-50 0,-53 -5,-3 -8,-19 -7,-37 4,-101 -116,-300 -207,-343 l -30,-14 25,17 c 51,37 92,77 107,106 l 15,31 -38,-31 c -82,-63 -142,-99 -219,-130 -61,-25 -73,-33 -50,-33 61,1 182,21 241,40 66,22 90,42 123,105 l 22,40 -7,-35 c -16,-89 -92,-178 -207,-245 -92,-54 -68,-57 33,-4 143,74 188,148 201,331 5,67 6,124 4,128 -3,4 4,15 15,25 19,18 20,17 14,-81 -14,-239 -57,-332 -199,-429 -30,-20 -34,-25 -15,-20 82,23 148,72 180,134 11,20 19,30 20,23 0,-24 -48,-107 -82,-139 -18,-17 -49,-41 -68,-53 l -35,-21 35,7 c 19,3 53,14 75,24 l 42,18 31,-104 c 18,-57 33,-111 33,-121 1,-10 5,3 9,29 5,26 18,81 30,122 l 22,74 52,-23 c 28,-13 62,-26 76,-29 l 25,-7 -25,18 c -14,9 -49,41 -77,71 -40,40 -53,49 -54,35 -1,-22 -37,-103 -38,-86 -1,7 6,31 15,53 12,30 15,59 11,108 l -5,67 19,-49 c 29,-78 91,-128 184,-150 23,-6 14,4 -40,41 -48,33 -77,62 -94,93 l -25,45 48,-52 c 47,-52 135,-104 201,-118 22,-5 15,2 -27,26 -90,50 -136,95 -173,170 -36,71 -49,111 -15,49 34,-65 153,-110 289,-110 h 56 l -84,34 c -147,60 -226,130 -246,221 -5,18 5,5 25,-33 23,-44 46,-74 79,-97 47,-35 191,-88 271,-100 41,-6 35,-2 -58,44 -201,99 -281,217 -282,412 0,96 23,162 76,219 52,56 124,90 205,97 50,5 58,3 72,-18 15,-20 15,-25 2,-39 -26,-28 -18,-73 19,-116 l 34,-39 12,42 c 16,52 9,79 -35,134 -33,42 -34,44 -14,47 83,14 125,-36 114,-136 -6,-50 -4,-61 17,-91 12,-19 37,-45 55,-58 l 31,-24 21,56 c 26,69 26,96 2,143 -19,37 -78,99 -116,121 -17,11 -16,12 15,7 81,-12 147,-25 170,-34 25,-9 25,-9 -8,-17 -23,-5 -40,-2 -57,9 -23,15 -25,15 -25,-2 0,-28 30,-63 68,-79 25,-10 52,-12 98,-8 l 63,7 -40,48 c -50,59 -91,80 -158,80 -28,0 -74,9 -103,20 -47,18 -66,20 -160,14 -74,-4 -108,-3 -108,4 0,6 8,13 18,16 10,4 32,20 48,37 29,30 29,30 4,21 -14,-6 -48,-21 -75,-35 -28,-15 -88,-40 -134,-56 -82,-31 -82,-31 -76,-8 18,65 91,190 135,231 53,50 132,79 197,74 34,-3 38,-6 48,-42 11,-37 63,-96 86,-96 7,0 8,12 4,33 -12,58 -16,66 -46,91 -35,30 -27,37 26,22 30,-9 44,-20 57,-46 21,-44 22,-54 3,-46 -21,8 -19,-10 5,-34 13,-13 33,-20 59,-20 21,0 53,-3 71,-6 l 32,-7 -25,49 c -36,69 -59,91 -114,103 -26,6 -73,18 -103,26 -30,8 -82,15 -117,15 -73,0 -78,18 -12,44 70,28 157,14 233,-37 21,-15 56,-32 76,-38 23,-7 44,-22 55,-41 37,-63 116,-70 193,-19 l 41,27 -56,35 c -67,40 -128,46 -162,15 -18,-16 -25,-17 -46,-8 -14,6 -25,18 -25,25 0,31 -44,55 -113,62 -38,4 -67,8 -65,10 2,2 50,20 107,39 76,25 98,30 88,18 -15,-17 -21,-35 -18,-58 1,-14 45,-34 75,-34 25,0 116,54 116,70 0,5 -10,10 -22,11 -19,0 -17,3 9,12 18,7 38,18 45,25 11,11 8,12 -13,3 -15,-5 -60,-7 -100,-4 -56,4 -94,0 -154,-16 -96,-24 -195,-37 -195,-25 1,16 60,75 70,69 5,-3 26,-3 46,1 47,9 94,57 116,118 l 16,48 -46,-7 c -73,-10 -114,-35 -149,-89 -18,-28 -42,-59 -54,-70 -21,-21 -22,-21 -14,-1 13,37 17,90 7,115 l -9,25 -17,-32 c -19,-37 -21,-76 -5,-106 11,-19 7,-26 -36,-64 -26,-24 -45,-43 -42,-43 2,0 24,7 47,15 23,8 48,15 54,15 20,-1 -18,-18 -101,-45 -80,-27 -85,-30 -186,-134 -66,-68 -122,-137 -157,-193 -46,-76 -70,-104 -70,-82 0,26 98,173 158,238 66,70 100,121 89,133 -3,2 -35,-27 -73,-64 l -68,-68 -8,45 c -4,25 -9,88 -11,141 -2,91 -1,98 28,144 30,48 107,110 150,121 16,4 30,-1 45,-16 18,-18 31,-22 69,-18 26,3 60,13 76,24 l 29,19 -29,3 c -78,6 -117,14 -109,22 14,13 275,120 293,120 9,0 39,-22 66,-50 65,-66 114,-85 199,-75 36,3 68,10 71,15 2,4 -15,28 -38,54 -43,46 -43,46 -17,46 38,0 88,38 117,88 l 25,42 -53,1 c -30,1 -60,1 -66,0 -8,-1 -2,14 12,35 14,20 25,41 25,45 0,5 -20,9 -44,9 -35,0 -48,-5 -60,-22 -22,-31 -21,-68 2,-69 12,0 10,-3 -8,-10 -13,-6 -33,-17 -43,-26 -11,-11 -52,-21 -107,-28 -82,-10 -107,-7 -80,10 20,12 63,111 76,174 8,35 15,65 17,67 1,2 20,-3 41,-10 61,-21 85,-7 136,78 l 24,39 -72,-6 c -41,-3 -82,-13 -97,-23 -31,-20 -59,-71 -85,-157 -11,-34 -28,-74 -37,-88 -20,-29 -110,-131 -99,-112 4,7 -23,-6 -60,-28 -94,-58 -100,-58 -61,-3 46,64 56,90 72,199 8,50 21,109 29,133 8,23 13,42 11,42 -12,0 -38,-71 -55,-150 -10,-49 -27,-104 -36,-122 -34,-67 -123,-164 -176,-193 -77,-41 -138,-83 -180,-123 -21,-20 -38,-31 -38,-25 0,9 46,55 111,108 13,11 39,27 57,34 18,8 31,15 29,17 -2,3 -20,-3 -40,-11 -48,-20 -47,-20 -28,20 9,20 23,34 34,35 9,0 26,15 38,33 23,37 22,89 -5,152 l -17,40 -35,-55 c -36,-57 -44,-108 -23,-153 10,-22 5,-32 -52,-102 -70,-85 -77,-84 -78,8 -1,57 14,96 68,176 23,33 41,63 41,67 0,3 -24,-14 -54,-40 -30,-25 -56,-46 -59,-46 -2,0 -1,21 4,46 10,52 52,114 128,189 50,49 52,49 84,36 92,-37 148,-31 209,23 l 38,33 -24,11 c -85,39 -119,36 -179,-14 -35,-29 -26,-31 18,-4 29,18 34,18 45,5 7,-9 10,-19 6,-23 -10,-9 -112,-9 -122,1 -12,12 46,66 101,92 29,14 83,28 130,34 78,9 81,10 124,58 l 44,48 -29,6 c -47,11 -104,10 -125,-1 -16,-9 -49,-58 -49,-75 0,-3 9,-1 21,5 22,12 35,8 25,-8 -3,-5 -28,-12 -55,-15 -49,-6 -127,-39 -186,-80 l -30,-21 20,23 c 11,13 40,34 65,46 25,13 65,44 88,69 38,41 42,51 42,96 v 51 l -31,-18 c -64,-38 -79,-64 -63,-107 3,-9 13,-16 21,-16 13,0 13,-2 2,-16 -18,-22 -89,-67 -96,-61 -2,3 -35,-29 -73,-71 -37,-43 -79,-88 -94,-101 -25,-24 -26,-24 -26,-4 0,12 -13,73 -30,136 -30,118 -32,188 -6,221 16,20 126,80 126,68 0,-5 -10,-17 -22,-26 -13,-9 -17,-14 -10,-11 18,9 15,-20 -4,-36 -13,-11 -15,-10 -12,6 1,10 -3,20 -10,22 -9,4 -12,-6 -10,-34 1,-21 -4,-63 -11,-94 -16,-65 -5,-98 42,-133 28,-21 29,-21 43,-2 20,28 17,75 -6,114 -11,17 -21,32 -23,32 -1,0 -2,-33 -1,-72 l 2,-73 -24,30 c -21,25 -24,37 -19,75 3,25 6,55 6,68 1,18 7,22 31,22 19,0 40,10 59,29 26,27 29,36 29,95 0,68 -14,96 -23,47 -3,-16 -12,-31 -20,-34 -12,-4 -13,1 -6,31 5,20 9,41 9,45 0,5 -25,-16 -56,-47 -31,-30 -53,-60 -49,-65 3,-6 -5,-15 -18,-20 -13,-5 -31,-17 -40,-26 -16,-15 -17,-14 -17,17 0,21 10,48 25,68 40,54 31,108 -34,204 l -19,29 z m 43,-134 -10,-43 -27,29 c -33,35 -34,61 -5,128 l 22,51 14,-61 c 11,-44 12,-73 6,-104 z m -299,-144 c 6,-28 6,-28 -11,-9 -16,19 -16,19 -11,-12 4,-19 0,-46 -8,-65 l -13,-33 -11,28 c -15,39 -14,61 6,125 l 17,55 13,-30 c 6,-17 15,-43 18,-59 z m 697,-25 c -4,-13 -13,-25 -19,-26 -17,-4 -16,8 3,35 19,28 26,25 16,-9 z M 1930,3553 c 0,-23 -5,-33 -15,-33 -9,0 -15,-9 -15,-25 0,-32 -25,-23 -46,17 -14,26 -13,34 8,100 l 23,70 22,-48 c 13,-27 23,-64 23,-81 z m 423,-62 c 6,-8 -10,0 -37,18 -40,28 -46,35 -32,43 11,6 16,24 17,61 l 1,52 19,-79 c 11,-44 25,-86 32,-95 z m 767,134 c -33,-19 -46,-19 -30,0 7,8 22,15 34,15 20,-1 20,-2 -4,-15 z m 294,-190 c -56,-28 -58,-29 -48,-14 7,13 62,38 83,39 8,0 -8,-11 -35,-25 z m -810,-203 c -16,-133 -16,-155 -4,-163 11,-6 11,-9 2,-9 -30,0 -33,50 -12,190 11,76 21,151 21,166 l 2,29 5,-30 c 2,-16 -4,-99 -14,-183 z m -289,129 c 15,-6 11,-9 -20,-14 -22,-4 -53,-6 -70,-6 -29,1 -28,2 10,14 47,16 53,16 80,6 z m 1190,-111 c -3,-5 -11,-10 -16,-10 -6,0 -7,5 -4,10 3,6 11,10 16,10 6,0 7,-4 4,-10 z m -2000,-51 c 11,-17 0,-20 -21,-4 -17,13 -17,14 -2,15 9,0 20,-5 23,-11 z m 1300,-74 c -7,-61 -25,-75 -25,-20 0,34 19,89 28,80 2,-2 1,-29 -3,-60 z m 735,38 c 0,-11 -59,-43 -78,-43 -13,1 -10,7 11,25 26,24 67,34 67,18 z m -85,-73 29,-31 -43,16 c -24,8 -62,15 -85,16 l -41,1 40,13 c 59,20 68,18 100,-15 z m -1845,0 c -14,-4 -38,-8 -55,-8 -29,1 -29,1 5,8 50,11 83,11 50,0 z m 951,-122 c 17,-103 20,-571 3,-607 -10,-23 -12,-22 -43,34 -33,58 -33,59 -21,119 7,34 14,149 15,256 3,199 11,294 25,285 4,-3 14,-42 21,-87 z m 719,-94 c 0,-4 -17,-23 -38,-43 -21,-20 -34,-33 -28,-28 13,9 26,9 26,-1 0,-5 -11,-14 -25,-20 -38,-18 -28,25 18,76 19,20 47,30 47,16 z m -1570,-22 c 0,-11 -44,-32 -87,-42 -40,-10 -42,1 -7,29 26,21 94,29 94,13 z m 1750,-156 c -24,-22 -60,-30 -60,-13 0,18 15,25 50,26 21,1 22,-1 10,-13 z m -850,-274 c -7,-79 -27,-142 -44,-142 -2,0 3,26 11,58 8,31 17,127 21,212 l 6,155 8,-95 c 3,-52 3,-137 -2,-188 z m -133,224 c -7,-51 -36,-117 -49,-110 -4,3 -1,18 7,33 7,15 19,49 26,74 14,59 24,61 16,3 z m -561,-116 c -33,-48 -36,-50 -36,-25 0,16 12,38 30,57 45,44 47,28 6,-32 z m 951,-24 c -78,-78 -159,-196 -182,-266 -9,-28 -25,-106 -35,-173 -19,-135 -28,-93 -10,51 19,146 82,262 208,385 89,86 104,88 19,3 z m 613,35 c 0,-10 -30,-24 -37,-17 -3,3 -2,9 2,15 8,13 35,15 35,2 z m -1840,-33 c 0,-5 -4,-7 -8,-4 -5,3 -14,-4 -22,-14 -8,-10 -17,-17 -22,-14 -4,3 -8,-4 -8,-14 0,-31 -24,-44 -64,-36 -20,3 -36,9 -36,13 0,15 69,72 96,80 33,9 64,3 64,-11 z m 1692,-15 c 10,-12 7,-14 -22,-11 -21,2 -34,9 -35,19 -3,20 38,14 57,-8 z m -1551,-30 c -12,-20 -14,-14 -5,12 4,9 9,14 11,11 3,-2 0,-13 -6,-23 z m 449,-136 c 0,-4 -5,-5 -12,-1 -8,5 -9,2 -5,-10 5,-12 -7,-7 -39,15 -70,51 -71,61 -5,31 34,-15 61,-30 61,-35 z m 178,-113 c 15,-14 22,-27 17,-34 -6,-9 -16,-3 -36,20 -16,18 -29,37 -29,42 0,5 -4,7 -8,4 -5,-3 -9,1 -9,9 0,16 2,14 65,-41 z m 502,7 c 0,-4 -20,-16 -45,-25 -24,-10 -60,-28 -80,-41 -19,-14 -35,-21 -35,-16 0,16 49,53 96,71 56,22 64,23 64,11 z m 238,2 c -10,-2 -28,-2 -40,0 -13,2 -5,4 17,4 22,1 32,-1 23,-4 z m -1379,-32 c 11,-7 10,-11 -7,-20 -11,-6 -31,-11 -44,-12 -23,-1 -23,-1 2,-9 21,-7 19,-8 -17,-9 -54,-1 -62,14 -21,39 35,21 65,25 87,11 z m 1519,-95 c 25,-38 32,-58 31,-95 0,-25 -5,-55 -10,-66 -6,-14 -8,-6 -4,27 6,50 -10,103 -38,127 -20,16 -22,4 -8,-45 5,-17 5,-37 1,-43 -10,-17 -35,44 -36,89 -1,19 -5,46 -9,60 -8,24 -8,25 16,9 13,-9 39,-37 57,-63 z m -770,12 c 6,-6 12,-15 12,-21 0,-6 10,-22 22,-36 13,-14 -2,-3 -32,24 -30,28 -57,52 -60,54 -3,2 6,0 20,-4 14,-4 31,-12 38,-17 z m 569,-50 c -2,-13 -4,-3 -4,22 0,25 2,35 4,23 2,-13 2,-33 0,-45 z m -533,-44 76,-85 -61,-75 c -34,-41 -63,-74 -65,-74 -15,0 5,35 51,90 l 55,64 -48,51 c -46,47 -98,115 -89,115 2,0 38,-39 81,-86 z m 103,-151 c -3,-10 -5,-4 -5,12 0,17 2,24 5,18 2,-7 2,-21 0,-30 z m 10,-115 c -2,-13 -4,-3 -4,22 0,25 2,35 4,23 2,-13 2,-33 0,-45 z m 10,-65 c -3,-10 -5,-4 -5,12 0,17 2,24 5,18 2,-7 2,-21 0,-30 z m -108,-250 c 0,-120 -4,-190 -9,-178 -10,23 -13,359 -3,368 3,4 8,7 10,7 2,0 3,-89 2,-197 z m 38,100 c -3,-10 -5,-2 -5,17 0,19 2,27 5,18 2,-10 2,-26 0,-35 z m 201,-83 c 31,-17 46,-28 32,-24 -60,16 -118,55 -145,99 -17,27 -16,27 19,-8 20,-20 63,-51 94,-67 z m -274,-230 6,-105 -19,59 c -11,32 -24,63 -29,68 -5,5 -1,25 11,49 11,22 21,39 22,37 1,-2 5,-50 9,-108 z m 23,-72 c -2,-13 -4,-3 -4,22 0,25 2,35 4,23 2,-13 2,-33 0,-45 z" id="path13" style="fill:#ffffff"/><path d="m 2873,3816 c -37,-49 -41,-83 -14,-117 21,-27 21,-27 21,-71 0,-30 1,-31 15,-12 8,10 15,28 15,40 0,11 7,29 15,40 19,26 18,81 -3,126 l -17,37 z m 12,-23 c -2,-10 -7,-31 -10,-48 -7,-30 -7,-30 -16,-6 -7,17 -5,30 6,47 18,28 24,30 20,7 z" id="path14" style="fill:#ffffff"/><path d="m 2509,3783 c 0,-11 -3,-13 -6,-5 -11,29 -25,10 -18,-25 7,-37 30,-73 46,-73 17,0 20,48 5,84 -16,39 -26,46 -27,19 z" id="path15" style="fill:#ffffff"/><path d="m 2099,3726 5,-51 6,40 c 5,36 7,38 16,20 15,-27 27,-95 16,-95 -4,0 -13,5 -20,12 -8,8 -12,8 -12,1 0,-6 15,-22 34,-36 l 34,-26 6,22 c 18,67 -10,137 -61,154 l -28,10 z" id="path16" style="fill:#ffffff"/><path d="m 2820,3655 c -22,-35 -22,-38 -7,-71 17,-34 51,-47 59,-22 4,12 -17,116 -25,125 -3,2 -15,-12 -27,-32 z" id="path17" style="fill:#ffffff"/><path d="m 2477,3619 c -24,-32 -46,-89 -34,-89 4,0 17,5 31,11 31,15 50,57 38,89 l -9,23 z" id="path18" style="fill:#ffffff"/><path d="m 2023,3623 c -7,-2 -13,-9 -13,-14 0,-6 4,-8 8,-5 13,8 95,-19 100,-32 5,-17 -34,-15 -69,4 -30,15 -30,15 -19,-5 21,-41 54,-54 120,-46 33,4 60,11 60,17 0,5 -4,7 -8,4 -9,-6 -32,13 -69,58 -18,20 -32,26 -60,25 -21,0 -44,-3 -50,-6 z" id="path19" style="fill:#ffffff"/><path d="m 3246,3550 c -25,-72 -31,-80 -38,-60 -12,33 -22,17 -14,-23 3,-19 17,-44 31,-57 l 24,-23 37,37 c 34,34 36,40 30,82 -3,25 -14,64 -24,86 l -17,41 z" id="path20" style="fill:#ffffff"/><path d="m 2716,3547 c 3,-10 9,-15 12,-12 3,3 0,11 -7,18 -10,9 -11,8 -5,-6 z" id="path21" style="fill:#ffffff"/><path d="m 3078,3498 c 15,-26 64,-53 75,-41 3,2 18,-36 33,-86 16,-50 34,-91 40,-91 7,0 17,14 23,31 16,47 14,61 -8,54 -15,-5 -25,5 -50,51 -17,32 -31,69 -31,83 0,24 -3,26 -49,26 h -49 z" id="path22" style="fill:#ffffff"/><path d="m 2130,3479 c -30,-7 -27,-7 19,-5 30,2 62,1 72,-1 30,-8 22,-23 -11,-23 -17,0 -33,-6 -36,-14 -6,-16 -51,-7 -90,19 -38,25 -28,1 16,-39 25,-22 50,-36 67,-36 26,0 148,54 158,70 3,4 -13,15 -35,24 -43,17 -102,19 -160,5 z" id="path23" style="fill:#ffffff"/><path d="m 2545,3472 c -16,-11 -59,-102 -52,-109 8,-8 56,24 63,42 9,22 0,75 -11,67 z" id="path24" style="fill:#ffffff"/><path d="m 1573,3461 c 51,-7 67,-21 67,-59 v -24 l -37,22 -38,22 35,-31 c 45,-39 68,-47 87,-28 13,12 13,19 0,50 -19,45 -43,57 -109,56 l -53,-2 z" id="path25" style="fill:#ffffff"/><path d="m 1531,3407 c 42,-79 68,-99 120,-95 32,2 45,8 47,20 3,15 -2,17 -26,12 -44,-9 -95,12 -115,45 -19,33 -22,45 -7,36 6,-3 10,-4 10,-1 0,3 -13,12 -29,20 l -29,15 z" id="path26" style="fill:#ffffff"/><path d="m 1720,3336 c 0,-8 9,-31 21,-50 15,-26 19,-48 17,-87 l -3,-53 -35,31 c -28,25 -34,37 -33,69 1,36 0,37 -10,15 -22,-47 64,-142 128,-140 17,0 16,2 -5,10 -34,14 -35,16 -16,34 29,29 20,86 -20,138 -40,51 -44,54 -44,33 z" id="path27" style="fill:#ffffff"/><path d="m 2121,3318 c -23,-65 -8,-130 37,-172 21,-18 21,-18 41,15 33,54 27,82 -35,151 l -33,36 z m 35,-56 c 3,-24 4,-45 1,-48 -12,-12 -34,52 -29,85 6,41 19,25 28,-37 z" id="path47" style="fill:#ffffff"/><path d="m 2984,3328 c -55,-61 -66,-103 -41,-161 l 12,-28 38,34 c 32,30 37,40 37,78 -1,24 -6,57 -13,72 l -12,29 z m -17,-98 c -13,-43 -14,-44 -20,-18 -8,32 9,86 23,72 6,-6 5,-26 -3,-54 z" id="path48" style="fill:#ffffff"/><path d="m 2778,3326 c -16,-12 -16,-14 8,-24 32,-15 76,-15 108,0 20,9 23,14 15,25 -15,17 -108,17 -131,-1 z m 53,-7 c -16,-6 -28,-6 -35,1 -7,7 1,10 25,9 32,0 33,-1 10,-10 z" id="path49" style="fill:#ffffff"/><path d="m 3446,3332 c -3,-5 -24,-12 -46,-16 -23,-4 -51,-16 -63,-27 l -22,-21 22,11 c 36,18 37,13 3,-25 -23,-27 -30,-44 -28,-67 7,-75 94,-16 127,86 18,57 21,82 7,59 z m -76,-96 c 0,-2 -8,-10 -17,-17 -16,-13 -17,-12 -4,4 13,16 21,21 21,13 z" id="path50" style="fill:#ffffff"/><path d="m 3128,3285 c -6,-13 -15,-22 -19,-19 -13,8 -11,-23 5,-60 13,-30 12,-35 -5,-50 -10,-9 -19,-21 -19,-28 0,-24 71,57 82,94 19,64 -19,119 -44,63 z" id="path51" style="fill:#ffffff"/><path d="m 1587,3278 c 23,-11 40,-44 28,-56 -3,-3 -15,-1 -26,6 -18,12 -19,11 -10,-6 9,-18 53,-52 66,-52 3,0 5,16 5,35 0,40 -36,85 -67,84 -15,0 -14,-2 4,-11 z" id="path52" style="fill:#ffffff"/><path d="m 2275,3159 c -4,-6 -5,-12 -2,-15 2,-3 7,2 10,11 7,17 1,20 -8,4 z" id="path53" style="fill:#ffffff"/><path d="m 2305,3114 c 17,-46 19,-74 5,-74 -11,0 -29,31 -41,69 -6,23 -7,22 -8,-12 -1,-30 6,-45 28,-68 34,-34 47,-36 61,-10 15,29 2,76 -30,106 l -28,27 z" id="path54" style="fill:#ffffff"/><path d="m 1671,3033 c -1,-45 32,-97 69,-107 11,-4 29,-9 40,-12 17,-4 20,-1 20,26 0,24 -11,43 -46,78 -35,35 -41,39 -25,15 26,-39 28,-73 3,-73 -21,0 -43,33 -53,80 l -7,35 z" id="path55" style="fill:#ffffff"/><path d="m 1473,2993 -32,-4 34,-48 c 53,-73 111,-91 161,-48 33,29 26,60 -19,88 -31,18 -68,21 -144,12 z m 113,-20 c 15,-15 15,-18 1,-27 -14,-9 -14,-11 1,-23 33,-27 -51,-3 -87,25 -31,23 -33,26 -15,33 34,13 82,9 100,-8 z" id="path56" style="fill:#ffffff"/><path d="m 3112,2988 c 2,-6 15,-20 29,-30 22,-17 30,-18 72,-6 l 47,12 -48,18 c -54,21 -106,24 -100,6 z" id="path57" style="fill:#ffffff"/><path d="m 2097,2943 c -26,-9 -45,-18 -43,-21 3,-2 19,1 37,7 40,14 89,14 89,1 0,-5 -20,-15 -45,-21 -60,-15 -64,-26 -15,-39 46,-12 100,-1 139,28 l 23,19 -38,15 c -64,25 -96,28 -147,11 z" id="path58" style="fill:#ffffff"/><path d="m 3424,2874 c -88,-43 -41,-149 51,-114 16,6 50,31 76,55 l 48,45 -51,15 c -64,19 -85,19 -124,-1 z m 36,-34 c 0,-11 -2,-20 -4,-20 -2,0 -11,-3 -20,-6 -19,-7 -22,16 -4,34 18,18 28,15 28,-8 z" id="path59" style="fill:#ffffff"/><path d="m 2272,2831 c -16,-51 -15,-72 4,-99 21,-30 39,-28 54,7 10,25 8,36 -10,80 -13,28 -26,51 -30,51 -4,0 -12,-17 -18,-39 z m 28,-31 c 0,-16 -4,-32 -10,-35 -6,-4 -10,10 -10,35 0,25 4,39 10,35 6,-3 10,-19 10,-35 z" id="path60" style="fill:#ffffff"/><path d="m 2872,2848 c -5,-7 -13,-24 -17,-37 l -7,-24 25,19 c 14,11 23,22 20,27 -2,4 7,7 21,7 14,0 26,5 26,10 0,14 -56,12 -68,-2 z" id="path61" style="fill:#ffffff"/><path d="m 2973,2841 c -13,-11 -23,-24 -23,-31 0,-6 -7,-24 -15,-40 -9,-18 -11,-31 -5,-35 6,-3 10,2 10,11 0,10 3,15 6,11 3,-3 3,-15 -1,-27 -5,-17 -10,-19 -21,-9 -11,9 -16,6 -24,-17 -12,-30 -6,-74 9,-74 5,0 23,14 40,31 29,28 31,35 31,103 0,43 5,77 12,84 18,18 6,14 -19,-7 z" id="path62" style="fill:#ffffff"/><path d="m 1798,2753 3,-58 -21,24 c -11,13 -20,37 -21,55 0,30 -1,30 -10,7 -17,-43 23,-121 61,-121 37,0 42,85 8,125 l -23,26 z" id="path63" style="fill:#ffffff"/><path d="m 2873,2764 c -30,-33 -43,-55 -43,-76 0,-37 20,-33 33,8 6,16 23,48 39,72 38,55 25,54 -29,-4 z" id="path64" style="fill:#ffffff"/><path d="m 1535,2719 c -15,-7 -10,-8 20,-4 45,5 79,-9 57,-24 -11,-6 -10,-10 5,-16 14,-7 10,-10 -22,-15 -30,-5 -50,-1 -78,14 -32,17 -35,21 -20,27 13,6 8,8 -17,8 l -34,1 48,-49 c 66,-67 94,-78 154,-60 52,16 62,36 41,76 -25,46 -102,67 -154,42 z" id="path65" style="fill:#ffffff"/><path d="m 2050,2593 c 0,-4 22,-38 49,-75 41,-55 61,-72 114,-97 92,-44 103,-41 71,22 -27,54 -56,77 -114,93 -30,9 -64,24 -75,34 -28,24 -45,33 -45,23 z m 131,-73 c 10,-6 19,-17 19,-25 0,-19 -39,-10 -64,15 l -20,20 h 22 c 13,0 32,-5 43,-10 z" id="path66" style="fill:#ffffff"/><path d="m 1726,2518 c -9,-12 -15,-38 -15,-58 l 2,-35 6,42 c 4,23 13,48 20,57 8,9 11,16 8,16 -3,0 -13,-10 -21,-22 z" id="path67" style="fill:#ffffff"/><path d="m 2980,2436 c -30,-7 -65,-19 -77,-26 -22,-14 -69,-88 -60,-96 5,-6 106,15 129,27 17,9 83,110 70,108 -4,-1 -32,-7 -62,-13 z m -52,-51 c -22,-25 -68,-60 -68,-51 0,13 64,76 76,76 10,0 7,-7 -8,-25 z" id="path68" style="fill:#ffffff"/><path d="m 1926,2401 c -6,-9 40,-77 65,-97 65,-52 107,1 53,65 -14,17 -35,31 -47,31 -12,0 -17,-4 -12,-8 16,-11 36,-62 25,-62 -5,0 -25,14 -45,32 -27,23 -33,33 -23,39 9,6 9,9 1,9 -6,0 -14,-4 -17,-9 z" id="path69" style="fill:#ffffff"/><path d="m 3110,2343 c -40,-17 -50,-29 -50,-61 0,-36 29,-24 64,25 16,24 28,44 25,46 -2,2 -20,-2 -39,-10 z" id="path70" style="fill:#ffffff"/><path d="m 3272,2343 c -7,-2 -25,-23 -41,-46 -28,-41 -28,-42 -7,-43 11,-1 42,-5 68,-9 48,-8 48,-7 95,41 l 48,48 -30,7 c -36,8 -115,9 -133,2 z m 17,-26 c -19,-13 -36,-22 -39,-20 -8,7 41,43 58,43 8,0 0,-10 -19,-23 z" id="path71" style="fill:#ffffff"/><path d="m 1750,2330 c -11,-8 -9,-9 10,-5 14,3 37,2 50,-4 14,-5 18,-10 10,-11 -10,0 -6,-5 9,-14 l 24,-13 -31,-11 c -27,-9 -38,-7 -77,13 -56,30 -58,24 -3,-15 53,-39 110,-41 153,-5 l 30,25 -28,25 c -22,20 -39,25 -80,25 -29,0 -59,-5 -67,-10 z" id="path72" style="fill:#ffffff"/><path d="m 1963,2215 c -48,-21 -130,-102 -143,-141 -14,-40 -6,-84 23,-137 l 21,-37 29,27 c 49,48 60,78 52,151 -4,36 -9,71 -12,79 -7,18 71,52 119,53 h 36 l -26,-28 c -15,-16 -35,-31 -45,-35 -31,-12 -52,-107 -26,-123 6,-3 26,9 45,27 27,26 34,41 34,71 0,54 30,72 95,58 71,-16 109,-34 155,-76 63,-57 83,-104 88,-206 7,-144 -44,-269 -144,-352 -21,-17 -85,-55 -144,-84 -86,-43 -98,-52 -65,-47 69,11 183,65 230,108 54,50 110,142 131,215 9,31 15,91 15,147 0,77 -4,103 -22,142 -13,27 -23,53 -24,60 0,13 -36,55 -42,49 -2,-2 -29,11 -60,29 -93,57 -249,81 -320,50 z m -49,-92 c -4,-20 -20,-64 -35,-97 -28,-60 -28,-61 -29,-26 -1,29 -3,31 -10,15 -7,-16 -9,-13 -9,17 -1,49 13,78 52,106 17,12 33,22 35,22 2,0 0,-17 -4,-37 z m 126,-10 c 0,-2 -5,-14 -11,-25 -9,-17 -13,-18 -20,-7 -12,20 -11,31 3,23 7,-5 9,-2 5,9 -4,11 -2,14 9,10 7,-3 14,-7 14,-10 z m 325,-3 c 10,-11 16,-20 13,-20 -3,0 -13,9 -23,20 -10,11 -16,20 -13,20 3,0 13,-9 23,-20 z" id="path73" style="fill:#ffffff"/><path d="m 2448,1884 c 5,-133 -10,-200 -64,-270 l -36,-47 41,29 c 63,45 85,106 85,229 0,68 -5,111 -15,135 -15,34 -15,30 -11,-76 z" id="path74" style="fill:#ffffff"/></g><path d="m 58.749562,137.57352 0.23328,-0.71875 0.233279,0.71875 -0.611571,-0.44449 h 0.756582" id="path76" style="fill:#ffffff;stroke-width:0.00315242"/><path d="m 59.603909,137.5735 0.23328,-0.71875 0.23328,0.71875 -0.611573,-0.44449 h 0.756584" id="path77" style="fill:#ffffff;stroke-width:0.00315242"/></g></svg>
