<svg xmlns:inkscape="http://www.inkscape.org/namespaces/inkscape" xmlns:sodipodi="http://sodipodi.sourceforge.net/DTD/sodipodi-0.dtd" xmlns="http://www.w3.org/2000/svg" xmlns:svg="http://www.w3.org/2000/svg" version="1.1" width="20.82505" height="24.621187" style="clip-rule:evenodd;fill-rule:evenodd;image-rendering:optimizeQuality;shape-rendering:geometricPrecision;text-rendering:geometricPrecision" id="svg17" sodipodi:docname="pngaaa.com-5011849.svg">
  <defs id="defs17"/>
  <sodipodi:namedview id="namedview17" pagecolor="#ffffff" bordercolor="#666666" borderopacity="1.0" inkscape:showpageshadow="2" inkscape:pageopacity="0.0" inkscape:pagecheckerboard="0" inkscape:deskcolor="#d1d1d1"/>
  <g id="g1" transform="matrix(0.04140169,0,0,0.04140169,-0.02070083,0.00788416)" inkscape:export-filename="g1.svg" inkscape:export-xdpi="1" inkscape:export-ydpi="1">
    <path style="opacity:0.973" fill="#d30000" d="m 177.5,0.5 c 20.75,-2.43365 40.084,1.56635 58,12 -41.934,8.3677 -75.434,29.701 -100.5,64 -11.252,18.1676 -22.252,36.501 -33,55 -8.6411,-29.653 -5.9745,-58.3196 8,-86 15.965,-24.7974 38.465,-39.79741 67.5,-45 z" id="path1"/>
  </g>
  <g id="g2" transform="matrix(0.04140169,0,0,0.04140169,-0.02070083,0.00788416)">
    <path style="opacity:0.974" fill="#d40000" d="m 287.5,3.5 c 40.332,-3.267963 66.165,14.3987 77.5,53 4.34,15.3798 6.34,31.0465 6,47 C 343.504,65.1606 306.004,44.6606 258.5,42 c -18.023,-0.5664 -36.023,-0.5664 -54,0 24.435,-19.8856 52.102,-32.7189 83,-38.5 z" id="path2"/>
  </g>
  <g id="g3" transform="matrix(0.04140169,0,0,0.04140169,-0.02070083,0.00788416)">
    <path style="opacity:0.976" fill="#d30000" d="m 194.5,51.5 c 11.862,-0.6575 23.528,0.5091 35,3.5 6.053,2.024 11.053,5.524 15,10.5 -14.622,7.2323 -27.789,16.5656 -39.5,28 -3,4 -6,8 -9,12 -6.729,13.792 -13.729,27.458 -21,41 -16.319,-18.625 -23.653,-40.291 -22,-65 2.47,-11.4603 8.97,-19.627 19.5,-24.5 7.312,-2.4947 14.645,-4.3281 22,-5.5 z" id="path3"/>
  </g>
  <g id="g4" transform="matrix(0.04140169,0,0,0.04140169,-0.02070083,0.00788416)">
    <path style="opacity:0.97" fill="#d40000" d="m 278.5,53.5 c 18.314,-2.1661 30.147,5.5006 35.5,23 2.39,13.5374 1.557,26.871 -2.5,40 -5.851,-5.017 -11.184,-10.517 -16,-16.5 -8.044,-7.0209 -17.378,-11.3543 -28,-13 -8.641,-1.6657 -17.308,-1.999 -26,-1 7.907,-16.0852 20.24,-26.9185 37,-32.5 z" id="path4"/>
  </g>
  <g id="g5" transform="matrix(0.04140169,0,0,0.04140169,-0.02070083,0.00788416)">
    <path style="opacity:0.98" fill="#d40000" d="m 385.5,73.5 c 19.868,2.6828 35.368,12.3495 46.5,29 16.102,27.717 19.768,57.051 11,88 -4.222,14.125 -11.722,26.125 -22.5,36 -7.545,-24.468 -16.378,-48.468 -26.5,-72 -3.842,-12.384 -6.175,-25.05 -7,-38 -0.972,-14.318 -1.472,-28.6517 -1.5,-43 z" id="path5"/>
  </g>
  <g id="g6" transform="matrix(0.04140169,0,0,0.04140169,-0.02070083,0.00788416)">
    <path style="opacity:0.949" fill="#d40000" d="m 235.5,101.5 c 8.357,-0.33 16.357,1.17 24,4.5 -23.739,9.241 -39.405,26.075 -47,50.5 -7.582,-13.62 -7.749,-27.287 -0.5,-41 6.034,-7.902 13.867,-12.569 23.5,-14 z" id="path6"/>
  </g>
  <g id="g7" transform="matrix(0.04140169,0,0,0.04140169,-0.02070083,0.00788416)">
    <path style="opacity:0.95" fill="#d40000" d="m 330.5,103.5 c 2.248,37.336 -12.419,66.169 -44,86.5 -18.503,8.39 -37.169,16.39 -56,24 -5,2.833 -10,5.667 -15,8.5 -0.333,-0.333 -0.667,-0.667 -1,-1 5.502,-8.149 11.835,-15.649 19,-22.5 18.11,-14.109 36.777,-27.443 56,-40 6.469,-5.468 12.636,-11.301 18.5,-17.5 8.125,-12.293 15.625,-24.959 22.5,-38 z" id="path7"/>
  </g>
  <g id="g8" transform="matrix(0.04140169,0,0,0.04140169,-0.02070083,0.00788416)">
    <path style="opacity:0.983" fill="#d40000" d="m 131.5,112.5 c 9.056,11.755 17.89,23.755 26.5,36 16.685,18.423 37.519,27.756 62.5,28 -0.592,3.191 -1.759,6.191 -3.5,9 -10.294,18.42 -20.46,36.92 -30.5,55.5 -58.196,-3.202 -81.363,-33.369 -69.5,-90.5 3.455,-13.235 8.288,-25.901 14.5,-38 z" id="path8"/>
  </g>
  <g id="g9" transform="matrix(0.04140169,0,0,0.04140169,-0.02070083,0.00788416)">
    <path style="opacity:0.982" fill="#d40000" d="m 352.5,118.5 c 11.69,9.93 19.19,22.596 22.5,38 6.426,38.416 -6.074,68.916 -37.5,91.5 -41.167,20.715 -84.167,25.382 -129,14 -6.313,-1.439 -12.48,-3.272 -18.5,-5.5 -0.667,-0.667 -0.667,-1.333 0,-2 6.472,-7.975 14.305,-14.142 23.5,-18.5 23.498,-8.459 47.165,-16.459 71,-24 26.833,-10.833 45.667,-29.667 56.5,-56.5 5.145,-11.935 8.978,-24.268 11.5,-37 z" id="path9"/>
  </g>
  <g id="g10" transform="matrix(0.04140169,0,0,0.04140169,-0.02070083,0.00788416)">
    <path style="opacity:0.972" fill="#d40000" d="m 256.5,121.5 c 13.669,1.267 27.335,1.267 41,0 -0.305,7.082 -2.138,13.748 -5.5,20 -3.799,4.801 -7.966,9.301 -12.5,13.5 -14.417,8.959 -28.917,17.792 -43.5,26.5 -7.474,-16.08 -7.141,-32.08 1,-48 4.951,-6.716 11.451,-10.716 19.5,-12 z" id="path10"/>
  </g>
  <g id="g11" transform="matrix(0.04140169,0,0,0.04140169,-0.02070083,0.00788416)">
    <path style="opacity:0.984" fill="#d40000" d="m 87.5,139.5 c 7.8409,-0.092 15.508,0.908 23,3 -23.5523,16.55 -28.3857,37.55 -14.5,63 5.698,10.035 13.198,18.535 22.5,25.5 16.503,12.255 34.503,21.921 54,29 16.584,5.645 33.25,10.978 50,16 -8.177,2.394 -16.177,5.394 -24,9 -4.447,3.87 -8.447,8.204 -12,13 -27.485,5.443 -53.485,1.443 -78,-12 -10.5116,-7.423 -20.8449,-15.09 -31,-23 -18.5974,-0.052 -36.2641,-4.052 -53,-12 C 3.72346,236.303 -1.4432,217.137 9,193.5 c 16.8302,-31.677 42.9969,-49.677 78.5,-54 z" id="path11"/>
  </g>
  <g id="g12" transform="matrix(0.04140169,0,0,0.04140169,-0.02070083,0.00788416)">
    <path style="opacity:0.978" fill="#d40000" d="m 395.5,191.5 c 1.25,0.077 2.083,0.744 2.5,2 8.658,33.065 4.324,64.399 -13,94 -8.254,13.067 -19.754,22.234 -34.5,27.5 -17.467,6.189 -35.467,9.022 -54,8.5 -31.474,0.005 -61.808,-5.828 -91,-17.5 15.161,-15.955 33.828,-24.622 56,-26 19.715,-1.137 39.382,-2.803 59,-5 24.466,-4.152 43.299,-16.652 56.5,-37.5 8.613,-14.336 14.78,-29.67 18.5,-46 z" id="path12"/>
  </g>
  <g id="g13" transform="matrix(0.04140169,0,0,0.04140169,-0.02070083,0.00788416)">
    <path style="opacity:0.982" fill="#d40000" d="m 503.5,262.5 c 0,2.667 0,5.333 0,8 -1.187,5.532 -3.854,10.366 -8,14.5 -4.341,3.172 -9.008,5.839 -14,8 -17.49,6.413 -34.157,14.413 -50,24 -5.773,3.936 -11.106,8.436 -16,13.5 -8.518,10.831 -17.851,20.997 -28,30.5 -26.283,19.182 -53.616,20.516 -82,4 -12.413,-7.212 -23.747,-15.879 -34,-26 19.415,-0.196 38.748,-1.53 58,-4 24.902,-2.706 46.402,-12.539 64.5,-29.5 11.812,-15.227 17.146,-32.56 16,-52 4.5,-7.167 10.333,-13 17.5,-17.5 9.154,-7.079 18.82,-13.413 29,-19 5,-0.667 10,-0.667 15,0 13.767,6.995 23.267,17.828 28.5,32.5 1.318,4.429 2.484,8.762 3.5,13 z" id="path13"/>
  </g>
  <g id="g14" transform="matrix(0.04140169,0,0,0.04140169,-0.02070083,0.00788416)">
    <path style="opacity:0.981" fill="#d40000" d="m 65.5,274.5 c 10.1238,10.285 20.7905,20.119 32,29.5 10.343,8.003 22.01,13.003 35,15 42.705,-2.905 83.039,5.428 121,25 -32.566,10.393 -65.566,19.393 -99,27 -19.565,2.785 -38.898,1.785 -58,-3 C 59.6441,353.122 46.8107,326.622 58,288.5 c 2.2706,-4.88 4.7706,-9.546 7.5,-14 z" id="path14"/>
  </g>
  <g id="g15" transform="matrix(0.04140169,0,0,0.04140169,-0.02070083,0.00788416)">
    <path style="opacity:0.967" fill="#d40000" d="m 191.5,594.5 c -6.667,0 -13.333,0 -20,0 14.45,-57.468 28.117,-115.134 41,-173 -0.167,-1 -0.333,-2 -0.5,-3 -4,-2.667 -7.333,-6 -10,-10 -1.74,-12.567 -6.573,-23.734 -14.5,-33.5 3,-0.667 6,-0.667 9,0 5.593,1.983 11.259,3.316 17,4 3.492,-6.496 7.825,-12.329 13,-17.5 1.983,1.482 3.816,3.149 5.5,5 1.623,4.21 3.623,8.21 6,12 4.11,-6.113 9.443,-10.779 16,-14 1.653,0.32 2.653,1.32 3,3 0.927,3.513 1.761,7.013 2.5,10.5 4.704,0.163 9.037,-1.17 13,-4 3.382,-0.824 6.716,-0.657 10,0.5 -6.902,7.399 -13.235,15.232 -19,23.5 -5.173,4.09 -10.84,7.423 -17,10 -8.348,6.847 -13.514,15.68 -15.5,26.5 -3.17,13.347 -6.337,26.681 -9.5,40 2.667,-0.333 5.333,-0.667 8,-1 -15.07,39.545 -27.737,79.878 -38,121 z" id="path15"/>
  </g>
  <g id="g16" transform="matrix(0.04140169,0,0,0.04140169,-0.02070083,0.00788416)">
    <path style="opacity:0.984" fill="#d40000" d="m 326.5,405.5 c 32.007,-0.593 63.841,1.407 95.5,6 0.5,0.333 1,0.667 1.5,1 -6.722,25.889 -23.055,42.389 -49,49.5 -24.927,6.433 -50.26,8.933 -76,7.5 -23.668,-0.352 -47.334,-0.685 -71,-1 6.251,-24.755 21.251,-41.921 45,-51.5 17.567,-6.479 35.567,-10.312 54,-11.5 z" id="path16"/>
  </g>
  <g id="g17" transform="matrix(0.04140169,0,0,0.04140169,-0.02070083,0.00788416)">
    <path style="opacity:0.983" fill="#d40000" d="m 55.5,434.5 c 29.3663,0.04 57.7,5.54 85,16.5 18.485,6.882 36.819,14.049 55,21.5 -7.866,16.941 -20.866,27.774 -39,32.5 -20.315,4.512 -40.648,4.512 -61,0 -33.9275,-6.305 -65.5942,-18.305 -95,-36 12.8984,-20.118 31.2317,-31.618 55,-34.5 z" id="path17"/>
  </g>
</svg>
