<svg xmlns:inkscape="http://www.inkscape.org/namespaces/inkscape" xmlns:sodipodi="http://sodipodi.sourceforge.net/DTD/sodipodi-0.dtd" xmlns="http://www.w3.org/2000/svg" xmlns:svg="http://www.w3.org/2000/svg" version="1.1" width="280.5574" height="81.342979" style="clip-rule:evenodd;fill-rule:evenodd;image-rendering:optimizeQuality;shape-rendering:geometricPrecision;text-rendering:geometricPrecision" id="svg65" sodipodi:docname="signature.svg" xml:space="preserve" inkscape:version="1.3 (0e150ed6c4, 2023-07-21)"><defs id="defs65"/><sodipodi:namedview id="namedview65" pagecolor="#ffffff" bordercolor="#666666" borderopacity="1.0" inkscape:showpageshadow="2" inkscape:pageopacity="0.0" inkscape:pagecheckerboard="0" inkscape:deskcolor="#d1d1d1" showgrid="false" inkscape:zoom="0.56268653" inkscape:cx="496.72417" inkscape:cy="54.204248" inkscape:window-width="1920" inkscape:window-height="1001" inkscape:window-x="-9" inkscape:window-y="-9" inkscape:window-maximized="1" inkscape:current-layer="svg65"/><g id="g14" transform="translate(-105.3901,-142.01198)"/><g id="g48" transform="translate(-105.3901,-142.01198)"/><path style="fill:#000000;fill-opacity:1;stroke:#000000;stroke-width:0.410148;stroke-dasharray:none;stroke-opacity:1" d="m 137.84209,80.877681 c 0,-0.236162 0.69104,-0.430717 1.53565,-0.432314 4.89269,-0.0094 22.55471,-0.484404 23.26682,-0.625888 0.46553,-0.09251 4.51963,-0.263557 9.0091,-0.380102 10.43541,-0.270928 31.10759,-0.96811 36.41851,-1.228228 8.66855,-0.424615 13.45891,-0.384156 13.62531,0.115071 0.11771,0.353116 -1.20475,0.498327 -4.88921,0.536902 -2.7778,0.02907 -5.8798,0.100984 -6.89333,0.159789 -3.9642,0.230059 -16.42485,0.711432 -21.0895,0.814791 -7.25634,0.16069 -20.62386,0.582234 -26.00355,0.819952 -11.77397,0.520276 -24.9798,0.636575 -24.9798,0.220027 z m 128.17501,0.07838 c 0,-0.206964 0.47108,-0.590956 1.04686,-0.853285 0.57576,-0.262329 0.9512,-0.631743 0.8343,-0.820894 -0.36602,-0.592225 -10.56677,-0.97544 -24.5063,-0.920607 -8.84474,0.03481 -13.41128,-0.08894 -13.41128,-0.363395 0,-0.756929 38.32263,-0.553896 40.25395,0.21327 0.99721,0.396114 0.7109,1.510254 -0.53699,2.089662 -1.50956,0.700868 -3.68054,1.087359 -3.68054,0.655249 z m -41.97424,-2.964815 c 0.1392,-0.225227 1.24486,-0.409505 2.45703,-0.409505 1.21216,0 2.31783,0.184278 2.45703,0.409505 0.15898,0.257251 -0.75457,0.409505 -2.45703,0.409505 -1.70247,0 -2.61602,-0.152254 -2.45703,-0.409505 z M 0.49533388,68.683 C 0.35956256,68.547229 0.24847619,68.037661 0.24847619,67.550629 c 0,-0.66875 0.5249606,-1.12819 2.14456451,-1.876896 5.8363159,-2.698002 14.8774943,-8.460586 20.6169093,-13.140616 1.748937,-1.426117 4.656196,-3.794668 6.460577,-5.263443 3.082785,-2.509405 3.358271,-2.867607 4.566663,-5.93782 2.062749,-5.240908 6.394782,-14.558388 7.802085,-16.780979 0.71305,-1.126139 1.876859,-3.199257 2.58624,-4.60693 0.709381,-1.407673 1.471408,-2.559405 1.693393,-2.559405 0.221988,0 0.403612,-0.241669 0.403612,-0.537041 0,-0.295372 0.368554,-0.932635 0.819009,-1.416141 0.450456,-0.483507 0.81901,-1.036338 0.81901,-1.228515 0,-0.192176 0.322485,-0.716703 0.716633,-1.165614 0.835534,-0.95162 1.635067,-2.153754 2.011095,-3.023776 0.826016,-1.9111421 6.657914,-8.3216329 8.410942,-9.24540201 1.349859,-0.71131808 3.266575,-0.75583535 3.931107,-0.0913073 1.03221,1.03221421 0.236199,5.24878701 -1.812837,9.60280231 -0.833878,1.771923 -1.138009,2.077847 -1.903505,1.914754 -0.85401,-0.181955 -0.865312,-0.156685 -0.180489,0.403506 0.697428,0.570497 0.689647,0.669429 -0.171488,2.180293 -0.496136,0.870472 -1.218339,1.951233 -1.604895,2.401689 -0.386556,0.450455 -0.829415,1.236311 -0.98413,1.746341 -0.154715,0.510034 -0.452315,0.821643 -0.661326,0.692469 -0.209011,-0.129178 -0.38002,0.04327 -0.38002,0.38321 0,0.339938 -0.256547,0.765439 -0.570101,0.945551 -0.313553,0.180113 -0.933535,0.972447 -1.377738,1.760744 -0.448313,0.795586 -1.103959,1.408242 -1.473652,1.377021 -0.505132,-0.04266 -0.606739,0.1799 -0.420635,0.921386 0.25411,1.012452 -0.407519,1.384044 -0.829276,0.46575 -0.129301,-0.281534 -0.131951,-0.09635 -0.0059,0.411524 0.153147,0.616972 0.01601,1.00522 -0.413284,1.169951 -0.35337,0.1356 -0.642493,0.422978 -0.642493,0.638615 0,0.420623 -2.642817,3.686927 -4.798033,5.929974 -0.724479,0.754008 -1.645865,1.373745 -2.047524,1.377193 -0.5749,0.005 -0.610137,0.08237 -0.165624,0.363915 0.426987,0.270449 -0.528441,1.473496 -3.918739,4.934369 l -4.483394,4.576724 -1.09348,4.375596 c -2.129155,8.519899 -2.067353,11.172135 0.315883,13.555371 0.980621,0.980621 1.318749,1.056072 4.631709,1.033553 3.019077,-0.02052 4.082406,-0.226157 6.849897,-1.324686 6.920693,-2.747106 16.157111,-9.195779 17.029573,-11.88969 1.477862,-4.563223 4.63869,-9.079345 6.354622,-9.079345 1.898137,0 1.151184,2.217899 -2.401643,7.131093 -3.647071,5.043531 -5.066902,9.398815 -3.556447,10.90927 0.438272,0.438272 1.303621,0.792486 1.922997,0.787142 4.144611,-0.03579 14.100828,-7.04352 18.857734,-13.273137 2.26663,-2.968361 2.8513,-3.455557 3.837449,-3.197675 1.391846,0.363976 0.657915,2.308947 -2.27181,6.02047 -2.614639,3.312353 -3.819521,7.78182 -2.492979,9.247634 1.246692,1.377578 4.632597,1.106769 7.715108,-0.61707 4.936793,-2.760812 15.308874,-11.572631 17.729614,-15.062579 1.04856,-1.511695 2.36314,-2.016864 2.69076,-1.034007 0.092,0.275895 -0.51998,1.88832 -1.35988,3.583167 -1.61561,3.260154 -2.26596,5.333808 -1.67282,5.333808 0.19684,0 1.53636,-0.926005 2.97671,-2.05779 8.05202,-6.327059 12.83615,-8.378706 16.08553,-6.898195 2.03662,0.927946 2.19746,2.52375 0.80339,7.970798 -0.57883,2.261622 -0.57873,2.611593 8.1e-4,3.732702 1.22583,2.370489 4.69744,3.175186 8.61364,1.996582 1.05898,-0.318705 3.68434,-1.643654 5.83413,-2.944323 3.06977,-1.857281 4.44112,-3.008509 6.38928,-5.363719 3.91019,-4.727176 9.16045,-8.300851 13.54692,-9.220922 1.99652,-0.418776 2.50071,-0.388743 3.7892,0.225698 0.90768,0.432843 1.66074,1.171016 1.93449,1.896245 l 0.44823,1.187499 1.16389,-0.828764 c 0.93359,-0.664774 1.28258,-0.730262 1.76372,-0.330958 0.90111,0.747858 0.76503,1.222888 -1.25457,4.379543 -1.55742,2.434253 -1.89456,3.328611 -2.10523,5.58459 -0.28731,3.076744 0.24943,4.30876 2.3505,5.395262 1.11176,0.574912 1.47258,0.580903 3.26906,0.05428 3.85871,-1.131146 10.31475,-6.935214 15.94044,-14.330678 2.06216,-2.710893 2.10435,-2.81967 1.39682,-3.601476 -0.64295,-0.710458 -0.67099,-1.025134 -0.23616,-2.650909 0.65872,-2.462893 1.52691,-3.706285 2.92921,-4.195127 1.77436,-0.618549 3.04161,0.417658 2.74513,2.244643 -0.1234,0.760434 -0.60422,1.916069 -1.06849,2.56807 -1.16745,1.639535 -1.05882,2.337335 0.4455,2.861747 1.82829,0.637345 4.15777,0.557233 6.07234,-0.208827 3.47656,-1.391043 3.76755,0.160137 0.69112,3.684261 -4.30175,4.927773 -8.85815,12.32243 -8.86809,14.392166 -0.002,0.49727 0.50011,1.130884 1.24657,1.571831 1.453,0.858306 1.39687,1.635636 -0.13121,1.817309 -0.67826,0.08064 -1.39336,-0.196423 -1.954,-0.757068 -0.75224,-0.752236 -0.84373,-1.168612 -0.61282,-2.788966 0.45912,-3.221824 3.6906,-9.19747 7.56281,-13.985105 1.172,-1.449066 1.07272,-1.612671 -0.95389,-1.571995 -0.99006,0.01986 -2.75064,-0.191894 -3.91239,-0.470599 -1.16176,-0.278701 -2.15579,-0.439894 -2.20895,-0.358206 -1.25865,1.933899 -5.97632,7.329006 -9.46366,10.822578 -5.16567,5.174912 -8.38208,7.143873 -11.65275,7.133369 -2.54621,-0.0082 -3.68393,-0.67927 -4.8495,-2.860498 -1.00361,-1.878177 -1.01817,-2.251879 -0.25913,-6.654453 0.15141,-0.878224 0.099,-1.535643 -0.12234,-1.535643 -0.21291,0 -1.66516,1.064409 -3.22725,2.365353 -8.36111,6.963384 -13.32964,9.612765 -16.17025,8.622521 -1.32841,-0.463084 -1.82102,-1.630267 -1.52869,-3.622029 0.0987,-0.6728 0.11565,-1.223273 0.0375,-1.223273 -0.0781,0 -0.83192,0.435554 -1.6752,0.967889 -6.1777,3.899809 -10.93966,5.136927 -14.32636,3.721871 -3.58329,-1.497187 -4.25537,-3.333279 -3.14934,-8.603713 0.61789,-2.944376 0.64585,-3.62537 0.18425,-4.487869 -1.75034,-3.270548 -10.44738,1.203616 -18.41054,9.471248 -3.9962,4.149001 -5.28673,4.996688 -5.38552,3.537503 -0.09,-1.329457 0.1092,-1.935176 1.75996,-5.351146 1.5233,-3.152229 1.83835,-4.766198 0.63898,-3.273484 -0.85934,1.069516 -10.214521,8.649631 -12.383291,10.033663 -1.126138,0.71866 -3.098236,1.70829 -4.382435,2.19918 -2.789706,1.066367 -4.609517,0.862884 -6.498559,-0.726642 -1.254321,-1.055441 -1.278498,-1.142694 -1.130237,-4.078754 0.08333,-1.650132 0.05579,-2.998558 -0.06121,-2.996506 -0.116991,0.002 -1.871203,1.202613 -3.898252,2.667907 -7.98147,5.769571 -13.32394,7.341652 -15.203108,4.473677 -0.778514,-1.188162 -0.916435,-2.295738 -0.520067,-4.176409 0.154268,-0.73199 0.184089,-1.330891 0.06626,-1.330891 -0.117827,0 -2.398413,1.480368 -5.067962,3.289704 -5.420685,3.673959 -8.992431,5.429444 -13.317539,6.54546 -6.39273,1.649522 -9.97801,0.53659 -11.362673,-3.527172 -0.834681,-2.449658 -0.837875,-4.74313 -0.01331,-9.543465 0.358002,-2.084113 0.566738,-3.873473 0.463859,-3.976353 -0.10288,-0.10288 -1.165467,0.602378 -2.361308,1.567241 C 21.347561,55.913985 16.886092,59.123593 8.8935325,64.213464 2.4734961,68.301915 0.93354908,69.121457 0.49509227,68.683 Z M 149.93968,56.101951 c 3.48487,-1.456068 14.21702,-9.486863 15.48926,-11.590509 0.17956,-0.296891 -0.0581,-1.033337 -0.56152,-1.740396 -0.71527,-1.004507 -1.16258,-1.225722 -2.47853,-1.225722 -2.1457,0 -5.01511,1.135901 -8.0142,3.172545 -5.27119,3.579596 -8.94258,9.577236 -7.03208,11.487728 0.62774,0.627742 0.86973,0.618086 2.59707,-0.103646 z M 38.784878,38.153204 c 0.989904,-0.964761 2.688275,-2.796705 3.774163,-4.070994 1.366113,-1.603134 2.186117,-2.249324 2.661782,-2.097562 0.58492,0.186616 0.596063,0.154863 0.07471,-0.212926 -0.514912,-0.363247 -0.345446,-0.712637 1.061502,-2.188533 0.920829,-0.965952 1.933665,-2.085153 2.250749,-2.487119 0.317083,-0.401966 0.764754,-0.954798 0.994826,-1.228515 1.024196,-1.218502 4.235713,-5.941075 4.837313,-7.113328 0.364709,-0.71065 0.897749,-1.539898 1.184533,-1.842771 C 56.84456,15.622908 61.500138,6.3306457 61.77537,4.6345914 62.100517,2.6309621 61.609038,1.9101599 60.369942,2.5733857 c -1.648429,0.8823232 -5.907275,5.166837 -8.10784,8.1567013 -0.538752,0.73199 -1.215525,1.330891 -1.503939,1.330891 -0.288418,0 -0.425664,0.257296 -0.304987,0.571771 0.120673,0.314471 -0.127589,0.821233 -0.551701,1.126138 -0.424112,0.304901 -0.896009,0.830783 -1.048664,1.168624 -0.319917,0.70801 -1.210513,2.156117 -1.511282,2.45734 -0.185571,0.18585 -0.738415,1.191766 -1.912846,3.48048 -0.231149,0.450455 -0.734672,1.371841 -1.118947,2.047524 -1.333295,2.344391 -7.112132,14.339737 -7.546022,15.66356 -0.239917,0.731989 -0.288259,1.33089 -0.107434,1.33089 0.180825,0 1.138698,-0.789345 2.128598,-1.754101 z m 8.147147,-7.255005 c 0,-0.225227 -0.184278,-0.409505 -0.409505,-0.409505 -0.225228,0 -0.409505,0.184278 -0.409505,0.409505 0,0.225228 0.184277,0.409505 0.409505,0.409505 0.225227,0 0.409505,-0.184277 0.409505,-0.409505 z M 222.71992,59.476795 c -1.10248,-0.532057 -2.26866,-2.873917 -3.21954,-6.465336 -0.50613,-1.911621 -0.71551,-4.403323 -0.74292,-8.841262 -0.0407,-6.587069 -13.49788,-3.741048 -14.64918,-4.992683 -5.47935,-5.956866 18.29879,-1.227908 17.49239,2.302822 -1.25344,5.488094 -0.39944,13.391205 1.69743,15.70822 1.68265,1.859307 4.06486,0.187398 8.92397,-6.263122 1.65149,-2.19237 3.68999,-5.215102 4.53,-6.71719 1.47027,-2.629074 1.50733,-2.79159 0.99244,-4.351709 -0.61472,-1.862633 -0.14192,-2.700578 1.63917,-2.905109 0.80598,-0.09256 1.17476,0.206579 1.8625,1.510778 0.69248,1.313187 1.20811,1.727786 2.67899,2.154048 4.39838,1.274678 7.85236,0.873433 12.91873,-1.500745 1.95443,-0.915874 3.69986,-1.665231 3.87873,-1.665231 0.17887,0 0.43422,0.343432 0.56745,0.763182 0.15649,0.49306 -0.28858,1.543887 -1.25747,2.96891 -2.61922,3.852322 -3.97094,7.139962 -3.74818,9.11629 0.28848,2.559434 1.13477,4.002414 2.97584,5.074064 3.01176,1.753069 9.48428,0.864861 16.07424,-2.205823 3.93241,-1.832366 6.29575,-1.850712 4.28752,-0.03329 -0.96506,0.873372 -4.97287,2.692781 -6.24645,2.835678 -0.55614,0.0624 -1.10373,0.234781 -1.21689,0.383071 -0.41237,0.540403 -6.59219,1.573154 -9.41351,1.573154 -3.32929,0 -5.52409,-0.761355 -6.8486,-2.375722 -0.92196,-1.123718 -1.40574,-3.57229 -0.68545,-3.379291 0.21755,0.05829 0.46709,-0.161009 0.55453,-0.487339 0.0878,-0.327715 -0.19177,-0.687313 -0.62455,-0.803273 -0.70346,-0.188491 -0.95954,-0.114743 -0.74486,-1.861105 0.13152,-1.069831 0.76328,-3.09688 1.40392,-4.504553 0.64064,-1.407673 1.01968,-2.559405 0.84231,-2.559405 -0.17736,0 -1.76352,0.368554 -3.52478,0.81901 -1.76126,0.450455 -4.06076,0.819009 -5.10999,0.819009 -1.99952,0 -5.98355,-1.007795 -6.88083,-1.740563 -0.62294,-0.50874 -1.07469,0.0069 -3.13923,3.583335 -4.9908,8.645634 -10.42787,14.583789 -13.2853,14.509706 -0.58795,-0.01523 -1.48004,-0.226084 -1.98243,-0.468531 z m 41.26406,-34.694247 c -0.92525,-1.728848 0.0186,-3.30296 1.98047,-3.30296 1.34333,0 2.10018,0.670728 2.10018,1.861204 0,1.953805 -3.20128,3.084865 -4.08065,1.441756 z" id="path71" sodipodi:nodetypes="scsssssscssssssssssssssscssssssssssssssssssssssssssssssssssscssssssssssssssssssssscsssssscssssssssssssssscssssssscsssssssssssssssssssssssssssssssssccsssssssssssssssssssssssssssssssssssssssssssssssssssssssssssssssssssssssssss"/></svg>
