<svg xmlns:inkscape="http://www.inkscape.org/namespaces/inkscape" xmlns:sodipodi="http://sodipodi.sourceforge.net/DTD/sodipodi-0.dtd" xmlns="http://www.w3.org/2000/svg" xmlns:svg="http://www.w3.org/2000/svg" height="4500" width="8003.875" version="1.1" id="svg3" sodipodi:docname="Arborhaven Flag Code.svg" xml:space="preserve" inkscape:version="1.3 (0e150ed6c4, 2023-07-21)" inkscape:export-filename="Flag.svg" inkscape:export-xdpi="743.54559" inkscape:export-ydpi="743.54559"><defs id="defs3"><inkscape:path-effect effect="bend_path" id="path-effect336" is_visible="true" lpeversion="1" bendpath="m 99.300875,135.82776 c 2.382635,14.28254 22.068945,15.42036 25.892125,0" prop_scale="1" scale_y_rel="false" vertical="false" hide_knot="false" bendpath-nodetypes="cc"/><inkscape:path-effect effect="fill_between_many" method="originald" linkedpaths="#g107,0,1" id="path-effect335" is_visible="true" lpeversion="0" join="true" close="true" autoreverse="true"/><inkscape:path-effect effect="bend_path" id="path-effect336-9" is_visible="true" lpeversion="1" bendpath="m 99.300875,135.82776 c 2.382635,14.28254 22.068945,15.42036 25.892125,0" prop_scale="1" scale_y_rel="false" vertical="false" hide_knot="false" bendpath-nodetypes="cc"/><inkscape:path-effect effect="fill_between_many" method="originald" linkedpaths="#g107,0,1" id="path-effect335-4" is_visible="true" lpeversion="0" join="true" close="true" autoreverse="true"/><marker id="start" markerUnits="strokeWidth" markerWidth="9" markerHeight="6" refX="0" refY="3" orient="auto"><path d="M 6,3 9,0 0,2.5 v 1 L 9,6 Z" id="path2"/></marker><marker id="end" markerUnits="strokeWidth" markerWidth="9" markerHeight="6" refX="9" refY="3" orient="auto"><path d="M 3,3 0,0 9,2.5 v 1 L 0,6 Z" id="path1-7"/></marker><marker id="start-5" markerUnits="strokeWidth" markerWidth="9" markerHeight="6" refX="0" refY="3" orient="auto"><path d="M 6,3 9,0 0,2.5 v 1 L 9,6 Z" id="path2-5"/></marker><marker id="end-8" markerUnits="strokeWidth" markerWidth="9" markerHeight="6" refX="9" refY="3" orient="auto"><path d="M 3,3 0,0 9,2.5 v 1 L 0,6 Z" id="path1-6"/></marker></defs><sodipodi:namedview id="namedview3" pagecolor="#ffffff" bordercolor="#666666" borderopacity="1.0" inkscape:showpageshadow="2" inkscape:pageopacity="0.0" inkscape:pagecheckerboard="0" inkscape:deskcolor="#d1d1d1" inkscape:zoom="0.10846969" inkscape:cx="3812.1249" inkscape:cy="1959.0726" inkscape:window-width="1920" inkscape:window-height="1001" inkscape:window-x="-9" inkscape:window-y="-9" inkscape:window-maximized="1" inkscape:current-layer="svg3"/><rect fill="#c8102e" height="2999.9995" width="4503.8755" id="rect1" x="1738.8284" y="750.00018" style="fill:#246d4d;fill-opacity:1;stroke:#000000;stroke-width:40;stroke-dasharray:none;stroke-opacity:1;opacity:0.6"/><rect fill="#FFFFFF" height="2960.4978" width="659.41296" x="3158.1917" id="rect2" style="fill:#ffeaa6;fill-opacity:1;stroke:#000000;stroke-width:79.5016;stroke-linecap:butt;stroke-linejoin:miter;stroke-dasharray:none;stroke-opacity:1;paint-order:stroke fill markers;opacity:0.6" y="769.75098"/><rect fill="#FFFFFF" height="659.24756" width="4464.2085" y="1920.3761" id="rect3" style="fill:#ffeaa6;fill-opacity:1;stroke:#000000;stroke-width:79.667;stroke-dasharray:none;stroke-opacity:1;paint-order:stroke fill markers;opacity:0.6" x="1758.6619"/><g inkscape:label="Layer 1" id="layer1" transform="matrix(29.298659,0,0,29.298659,391.65977,756.10694)"><g id="g107" transform="matrix(0.26458333,0,0,0.26458333,54.729167,135.21922)" style="clip-rule:evenodd;fill:#044f1d;fill-opacity:1;fill-rule:evenodd;stroke:none;image-rendering:optimizeQuality;shape-rendering:geometricPrecision;text-rendering:geometricPrecision"/><g id="g123" transform="matrix(0.26458333,0,0,0.26458333,54.729167,135.21922)" style="clip-rule:evenodd;fill:#044f1d;fill-opacity:1;fill-rule:evenodd;stroke:none;image-rendering:optimizeQuality;shape-rendering:geometricPrecision;text-rendering:geometricPrecision"/><g id="g136" transform="matrix(0.26458333,0,0,0.26458333,54.729167,135.21922)" style="clip-rule:evenodd;fill:#044f1d;fill-opacity:1;fill-rule:evenodd;stroke:none;image-rendering:optimizeQuality;shape-rendering:geometricPrecision;text-rendering:geometricPrecision"/><g id="g138" transform="matrix(0.26458333,0,0,0.26458333,54.729167,135.21922)" style="clip-rule:evenodd;fill:#044f1d;fill-opacity:1;fill-rule:evenodd;stroke:none;image-rendering:optimizeQuality;shape-rendering:geometricPrecision;text-rendering:geometricPrecision"/><g id="g139" transform="matrix(0.26458333,0,0,0.26458333,54.729167,135.21922)" style="clip-rule:evenodd;fill:#044f1d;fill-opacity:1;fill-rule:evenodd;stroke:none;image-rendering:optimizeQuality;shape-rendering:geometricPrecision;text-rendering:geometricPrecision"/><g id="g148" transform="matrix(0.26458333,0,0,0.26458333,54.729167,135.21922)" style="clip-rule:evenodd;fill:#044f1d;fill-opacity:1;fill-rule:evenodd;stroke:none;image-rendering:optimizeQuality;shape-rendering:geometricPrecision;text-rendering:geometricPrecision"/><g id="g160" transform="matrix(0.26458333,0,0,0.26458333,54.729167,135.21922)" style="clip-rule:evenodd;fill:#044f1d;fill-opacity:1;fill-rule:evenodd;stroke:none;image-rendering:optimizeQuality;shape-rendering:geometricPrecision;text-rendering:geometricPrecision"/><g id="g161" transform="matrix(0.26458333,0,0,0.26458333,54.729167,135.21922)" style="clip-rule:evenodd;fill:#044f1d;fill-opacity:1;fill-rule:evenodd;stroke:none;image-rendering:optimizeQuality;shape-rendering:geometricPrecision;text-rendering:geometricPrecision"/><g id="g162" transform="matrix(0.26458333,0,0,0.26458333,54.729167,135.21922)" style="clip-rule:evenodd;fill:#044f1d;fill-opacity:1;fill-rule:evenodd;stroke:none;image-rendering:optimizeQuality;shape-rendering:geometricPrecision;text-rendering:geometricPrecision"/><g id="g163" transform="matrix(0.26458333,0,0,0.26458333,54.729167,135.21922)" style="clip-rule:evenodd;fill:#044f1d;fill-opacity:1;fill-rule:evenodd;stroke:none;image-rendering:optimizeQuality;shape-rendering:geometricPrecision;text-rendering:geometricPrecision"/><g id="g168" transform="matrix(0.26458333,0,0,0.26458333,54.729167,135.21922)" style="clip-rule:evenodd;fill:#044f1d;fill-opacity:1;fill-rule:evenodd;stroke:none;image-rendering:optimizeQuality;shape-rendering:geometricPrecision;text-rendering:geometricPrecision"/><g id="g172" transform="matrix(0.26458333,0,0,0.26458333,54.729167,135.21922)" style="clip-rule:evenodd;fill:#044f1d;fill-opacity:1;fill-rule:evenodd;stroke:none;image-rendering:optimizeQuality;shape-rendering:geometricPrecision;text-rendering:geometricPrecision"/><g id="g173" transform="matrix(0.26458333,0,0,0.26458333,54.729167,135.21922)" style="clip-rule:evenodd;fill:#044f1d;fill-opacity:1;fill-rule:evenodd;stroke:none;image-rendering:optimizeQuality;shape-rendering:geometricPrecision;text-rendering:geometricPrecision"/><g id="g175" transform="matrix(0.26458333,0,0,0.26458333,54.729167,135.21922)" style="clip-rule:evenodd;fill:#044f1d;fill-opacity:1;fill-rule:evenodd;stroke:none;image-rendering:optimizeQuality;shape-rendering:geometricPrecision;text-rendering:geometricPrecision"/><g id="g176" transform="matrix(0.26458333,0,0,0.26458333,54.729167,135.21922)" style="clip-rule:evenodd;fill:#044f1d;fill-opacity:1;fill-rule:evenodd;stroke:none;image-rendering:optimizeQuality;shape-rendering:geometricPrecision;text-rendering:geometricPrecision"/><g id="g178" transform="matrix(0.26458333,0,0,0.26458333,54.729167,135.21922)" style="clip-rule:evenodd;fill:#044f1d;fill-opacity:1;fill-rule:evenodd;stroke:none;image-rendering:optimizeQuality;shape-rendering:geometricPrecision;text-rendering:geometricPrecision"/><g id="g184" transform="matrix(0.26458333,0,0,0.26458333,54.729167,135.21922)" style="clip-rule:evenodd;fill-rule:evenodd;image-rendering:optimizeQuality;shape-rendering:geometricPrecision;text-rendering:geometricPrecision"/><g id="g192" transform="matrix(0.26458333,0,0,0.26458333,54.729167,135.21922)" style="clip-rule:evenodd;fill:#044f1d;fill-opacity:1;fill-rule:evenodd;stroke:none;image-rendering:optimizeQuality;shape-rendering:geometricPrecision;text-rendering:geometricPrecision"/><g id="g198" transform="matrix(0.26458333,0,0,0.26458333,54.729167,135.21922)" style="clip-rule:evenodd;fill:#044f1d;fill-opacity:1;fill-rule:evenodd;stroke:none;image-rendering:optimizeQuality;shape-rendering:geometricPrecision;text-rendering:geometricPrecision"/><g id="g199" transform="matrix(0.26458333,0,0,0.26458333,54.729167,135.21922)" style="clip-rule:evenodd;fill:#044f1d;fill-opacity:1;fill-rule:evenodd;stroke:none;image-rendering:optimizeQuality;shape-rendering:geometricPrecision;text-rendering:geometricPrecision"/><g id="g200" transform="matrix(0.26458333,0,0,0.26458333,54.729167,135.21922)" style="clip-rule:evenodd;fill:#044f1d;fill-opacity:1;fill-rule:evenodd;stroke:none;image-rendering:optimizeQuality;shape-rendering:geometricPrecision;text-rendering:geometricPrecision"/><g id="g201" transform="matrix(0.26458333,0,0,0.26458333,54.729167,135.21922)" style="clip-rule:evenodd;fill:#044f1d;fill-opacity:1;fill-rule:evenodd;stroke:none;image-rendering:optimizeQuality;shape-rendering:geometricPrecision;text-rendering:geometricPrecision"/><g id="g237" transform="matrix(0.26458333,0,0,0.26458333,54.729167,135.21922)" style="clip-rule:evenodd;fill:#044f1d;fill-opacity:1;fill-rule:evenodd;stroke:none;image-rendering:optimizeQuality;shape-rendering:geometricPrecision;text-rendering:geometricPrecision"/><g id="g261" transform="matrix(0.26458333,0,0,0.26458333,54.729167,135.21922)" style="clip-rule:evenodd;fill-rule:evenodd;image-rendering:optimizeQuality;shape-rendering:geometricPrecision;text-rendering:geometricPrecision"/><g id="g263" transform="matrix(0.26458333,0,0,0.26458333,54.729167,135.21922)" style="clip-rule:evenodd;fill-rule:evenodd;image-rendering:optimizeQuality;shape-rendering:geometricPrecision;text-rendering:geometricPrecision"/><g id="g265" transform="matrix(0.26458333,0,0,0.26458333,54.729167,135.21922)" style="clip-rule:evenodd;fill-rule:evenodd;image-rendering:optimizeQuality;shape-rendering:geometricPrecision;text-rendering:geometricPrecision"/><g id="g267" transform="matrix(0.26458333,0,0,0.26458333,54.729167,135.21922)" style="clip-rule:evenodd;fill-rule:evenodd;image-rendering:optimizeQuality;shape-rendering:geometricPrecision;text-rendering:geometricPrecision"/><g id="g269" transform="matrix(0.26458333,0,0,0.26458333,54.729167,135.21922)" style="clip-rule:evenodd;fill-rule:evenodd;image-rendering:optimizeQuality;shape-rendering:geometricPrecision;text-rendering:geometricPrecision"/><g id="g271" transform="matrix(0.26458333,0,0,0.26458333,54.729167,135.21922)" style="clip-rule:evenodd;fill-rule:evenodd;image-rendering:optimizeQuality;shape-rendering:geometricPrecision;text-rendering:geometricPrecision"/><g id="g273" transform="matrix(0.26458333,0,0,0.26458333,54.729167,135.21922)" style="clip-rule:evenodd;fill-rule:evenodd;image-rendering:optimizeQuality;shape-rendering:geometricPrecision;text-rendering:geometricPrecision"/><g id="g275" transform="matrix(0.26458333,0,0,0.26458333,54.729167,135.21922)" style="clip-rule:evenodd;fill-rule:evenodd;image-rendering:optimizeQuality;shape-rendering:geometricPrecision;text-rendering:geometricPrecision"/><g id="g277" transform="matrix(0.26458333,0,0,0.26458333,54.729167,135.21922)" style="clip-rule:evenodd;fill-rule:evenodd;image-rendering:optimizeQuality;shape-rendering:geometricPrecision;text-rendering:geometricPrecision"/><g id="g279" transform="matrix(0.26458333,0,0,0.26458333,54.729167,135.21922)" style="clip-rule:evenodd;fill-rule:evenodd;image-rendering:optimizeQuality;shape-rendering:geometricPrecision;text-rendering:geometricPrecision"/><g id="g281" transform="matrix(0.26458333,0,0,0.26458333,54.729167,135.21922)" style="clip-rule:evenodd;fill-rule:evenodd;image-rendering:optimizeQuality;shape-rendering:geometricPrecision;text-rendering:geometricPrecision"/><g id="g283" transform="matrix(0.26458333,0,0,0.26458333,54.729167,135.21922)" style="clip-rule:evenodd;fill-rule:evenodd;image-rendering:optimizeQuality;shape-rendering:geometricPrecision;text-rendering:geometricPrecision"/><g id="g286" transform="matrix(0.26458333,0,0,0.26458333,54.729167,135.21922)" style="clip-rule:evenodd;fill-rule:evenodd;image-rendering:optimizeQuality;shape-rendering:geometricPrecision;text-rendering:geometricPrecision"/><g id="g288" transform="matrix(0.26458333,0,0,0.26458333,54.729167,135.21922)" style="clip-rule:evenodd;fill-rule:evenodd;image-rendering:optimizeQuality;shape-rendering:geometricPrecision;text-rendering:geometricPrecision"/><g id="g290" transform="matrix(0.26458333,0,0,0.26458333,54.729167,135.21922)" style="clip-rule:evenodd;fill-rule:evenodd;image-rendering:optimizeQuality;shape-rendering:geometricPrecision;text-rendering:geometricPrecision"/><g id="g292" transform="matrix(0.26458333,0,0,0.26458333,54.729167,135.21922)" style="clip-rule:evenodd;fill-rule:evenodd;image-rendering:optimizeQuality;shape-rendering:geometricPrecision;text-rendering:geometricPrecision"/><g id="g294" transform="matrix(0.26458333,0,0,0.26458333,54.729167,135.21922)" style="clip-rule:evenodd;fill-rule:evenodd;image-rendering:optimizeQuality;shape-rendering:geometricPrecision;text-rendering:geometricPrecision"/><g id="g296" transform="matrix(0.26458333,0,0,0.26458333,54.729167,135.21922)" style="clip-rule:evenodd;fill-rule:evenodd;image-rendering:optimizeQuality;shape-rendering:geometricPrecision;text-rendering:geometricPrecision"/><g id="g298" transform="matrix(0.26458333,0,0,0.26458333,54.729167,135.21922)" style="clip-rule:evenodd;fill-rule:evenodd;image-rendering:optimizeQuality;shape-rendering:geometricPrecision;text-rendering:geometricPrecision"/><g id="g300" transform="matrix(0.26458333,0,0,0.26458333,54.729167,135.21922)" style="clip-rule:evenodd;fill-rule:evenodd;image-rendering:optimizeQuality;shape-rendering:geometricPrecision;text-rendering:geometricPrecision"/><g id="g302" transform="matrix(0.26458333,0,0,0.26458333,54.729167,135.21922)" style="clip-rule:evenodd;fill-rule:evenodd;image-rendering:optimizeQuality;shape-rendering:geometricPrecision;text-rendering:geometricPrecision"/><g id="g304" transform="matrix(0.26458333,0,0,0.26458333,54.729167,135.21922)" style="clip-rule:evenodd;fill-rule:evenodd;image-rendering:optimizeQuality;shape-rendering:geometricPrecision;text-rendering:geometricPrecision"/><g id="g306" transform="matrix(0.26458333,0,0,0.26458333,54.729167,135.21922)" style="clip-rule:evenodd;fill-rule:evenodd;image-rendering:optimizeQuality;shape-rendering:geometricPrecision;text-rendering:geometricPrecision"/><g id="g308" transform="matrix(0.26458333,0,0,0.26458333,54.729167,135.21922)" style="clip-rule:evenodd;fill-rule:evenodd;image-rendering:optimizeQuality;shape-rendering:geometricPrecision;text-rendering:geometricPrecision"/><g id="g310" transform="matrix(0.26458333,0,0,0.26458333,54.729167,135.21922)" style="clip-rule:evenodd;fill-rule:evenodd;image-rendering:optimizeQuality;shape-rendering:geometricPrecision;text-rendering:geometricPrecision"/><g id="g336" transform="matrix(0.52881379,0,0,0.52881379,39.314465,13.545272)"><circle style="fill:#ffeaa6;fill-opacity:1;stroke:#000000;stroke-width:2.58172;stroke-linecap:square;stroke-linejoin:bevel;stroke-miterlimit:4.5;stroke-dasharray:none;stroke-opacity:1;paint-order:markers fill stroke;opacity:0.6" id="path1" cx="125.49601" cy="70.805969" r="42.058796" inkscape:export-filename="path1.png" inkscape:export-xdpi="243.596" inkscape:export-ydpi="243.596"/><circle style="fill:none;fill-opacity:1;stroke:#246d4d;stroke-width:3.99999;stroke-linecap:square;stroke-linejoin:bevel;stroke-miterlimit:4.5;stroke-dasharray:none;stroke-opacity:1;paint-order:markers fill stroke;opacity:0.6" id="circle1" cx="125.49601" cy="70.805969" r="36.626644"/></g><g id="g2" transform="translate(-3.4347993,4.3507458)"><g style="overflow:visible" id="g1" transform="matrix(0.09703692,0,0,0.09703692,74.26312,22.572543)"><g id="g2252"><path style="fill:#246d4d;fill-opacity:1" d="m 370.13454,321.0939 c 0.0237,12.72596 -0.8074,25.2195 -0.87172,37.77701 -0.0237,4.45025 0.15912,9.85793 0.90051,14.1909 0.62797,3.67408 2.67272,7.35453 2.7252,11.32073 2.71505,0.40942 2.39852,4.42252 4.89184,4.7765 5.54519,12.7345 -7.19388,8.59345 -13.76653,8.56572 -4.39419,-0.0192 -8.99996,1.00434 -13.04715,0.7975 -4.30277,-0.2175 -7.35128,-0.2111 -11.82333,1.47774 1.31182,-1.84238 3.24147,-2.4309 4.49067,-4.4204 2.22587,-3.54186 1.66221,-8.48895 2.126,-12.68331 0.81249,-7.34815 0.86326,-14.32951 0.91912,-21.79706 0.0508,-6.86622 1.09346,-13.84121 1.71637,-20.32997 0.64153,-6.70205 0.0288,-14.00112 0.0203,-20.76926" id="path2202"/><g transform="matrix(1,0,0,0.981087,-0.85664,9.6643444)" id="g3452"><path id="path2204" d="m 352.43,333.7372 c -1.13049,1.11191 -3.62991,4.18951 -5.69018,4.26306 -1.16136,0.0404 -1.35692,-1.10615 -2.37076,-1.20422 -2.21809,-0.21632 -5.0606,-0.18892 -7.29755,-0.12114 -5.3488,0.16152 -10.59295,0.27401 -15.93317,-0.28122 -9.29607,-0.9677 -16.6245,-1.21142 -25.4248,1.44794 -3.77058,1.14075 -7.66809,1.43351 -11.82122,1.09172 -4.51851,-0.37064 -9.45731,-0.46726 -13.8952,-1.32247 -3.5064,-0.67494 -9.19314,-2.3666 -5.35909,-6.11336 3.57844,-3.49294 10.13664,-1.44073 13.56584,-4.29334 -10.14865,-0.83069 -19.75178,2.83963 -29.58307,1.7407 -3.81689,-0.42544 -11.11445,-0.59273 -7.76416,-5.24662 2.12202,-2.94635 6.92873,-5.54514 7.8568,-9.06116 2.4754,-0.33314 4.55968,-3.88953 6.80693,-5.1197 2.42737,-1.32824 5.97837,-2.61177 8.71281,-3.29392 1.38094,-3.14826 -2.2867,-4.11451 -3.37945,-6.4566 -1.61596,-3.46697 2.71557,-4.49236 3.70367,-7.33343 0.47347,-0.0966 0.94693,-0.19181 1.42212,-0.28411 0.10978,-0.39804 0.22129,-0.79896 0.33623,-1.197 1.6211,-0.11682 3.95584,-2.33776 5.11206,-3.27806 1.64512,-1.33689 5.60783,-4.17652 6.09845,-5.60427 -5.50147,0.075 -1.34149,-4.60052 0.36196,-5.90713 2.78247,-2.1373 5.29733,-3.17278 8.2565,-4.80531 1.79094,-0.98933 5.47231,-3.96164 4.69349,-6.06289 -0.96066,-2.59302 -5.7262,-1.56475 -6.93045,-4.17075 -1.92646,-4.16932 6.481,-11.05136 9.08506,-14.43036 1.74977,-2.27286 4.09309,-3.87511 6.40381,-5.68792 3.0415,-2.3868 4.93708,-5.56967 7.84478,-8.02136 -5.63184,0.46871 -10.99779,-0.92443 -16.3037,-0.76146 -2.2524,-5.59274 10.51404,-10.79609 14.02901,-13.74533 2.62808,-2.20652 4.76897,-5.31728 7.56517,-7.63052 2.41708,-2.00029 5.81711,-5.82926 8.77285,-6.67437 -4.71751,-0.0707 -8.778,2.9853 -13.63961,2.14595 -1.1322,-2.92039 5.79996,-9.45487 7.45023,-12.10413 2.35704,-3.78138 7.23237,-7.88868 8.32512,-12.26278 1.78064,-7.12576 -5.9818,-4.04817 -8.57557,-8.28094 -2.54746,-4.1549 6.89099,-5.91579 8.51038,-7.86127 1.38781,-1.66571 1.47873,-5.49612 0.036,-7.13442 -1.43069,-1.62389 -3.48067,-1.06144 -3.60933,-3.41939 -0.22644,-4.22844 6.16021,-8.25642 7.70241,-11.74215 1.00354,-2.26709 -0.30192,-4.43612 -0.57811,-6.6037 -0.29849,-2.32334 0.6879,-5.26825 1.85612,-7.26133 0.79083,-1.34987 2.55089,-2.72137 3.39661,-4.40439 0.6107,-1.22007 1.12191,-2.40986 1.75663,-3.63427 1.30203,-2.51514 2.69841,-4.7707 3.99873,-7.49496 1.63826,-3.43092 6.26828,-5.11682 8.27537,-8.29825 1.40839,-2.23248 0.50091,-4.8702 1.98993,-7.197869 1.12191,-1.74791 2.30043,-2.789157 2.95573,-4.695707 -0.31736,-0.15287 -0.4769,-0.399481 -0.48719,-0.742718 L 357.71189,88 c 1.20597,1.531585 1.47872,4.013561 2.41022,5.738396 0.84057,1.557545 1.69487,3.10932 2.65553,4.620715 1.31747,2.075279 2.61092,4.108749 3.57501,6.057119 2.36733,4.79233 3.83576,9.28325 6.70572,13.90973 1.30032,2.09548 3.00205,3.85492 4.03991,5.88262 1.33634,2.60888 1.35178,5.11537 2.14946,7.81512 0.73765,2.49928 2.3862,4.62504 3.0844,7.03923 0.71534,2.46611 3.85634,6.42487 3.4412,8.77849 -1.35006,0.0433 -2.86481,0.0173 -4.19772,0.26104 2.6641,4.6683 8.99757,8.0127 12.7184,12.06231 1.82525,1.9902 2.12202,3.43813 3.07067,5.51197 0.71878,1.57486 1.95048,3.05308 1.7206,4.78801 -0.10292,0.78022 -0.97266,1.47967 -1.01898,2.52957 -0.4889,0.0808 -0.97609,0.16296 -1.46328,0.24949 -0.99497,2.53822 1.64512,5.14711 2.92314,7.28008 1.88357,3.14105 1.17337,2.91463 -0.66732,5.86387 -1.91445,3.07182 -1.56792,5.1024 -0.62785,8.19585 0.52493,1.73061 0.22472,2.4863 1.72575,4.08134 1.05157,1.11624 2.48913,1.75512 2.82364,3.17566 0.47175,0.10384 0.94865,0.19325 1.42898,0.27257 0.45974,2.67667 5.39339,5.72254 4.61972,8.77273 -0.91434,3.59821 -6.55305,2.47332 -0.9658,6.94693 3.9507,3.16557 14.05646,7.87425 13.12668,13.64726 -3.51154,0.16585 -6.071,1.8604 -9.45732,1.72051 0.42887,2.56274 5.57009,3.97318 7.52228,5.95761 2.77561,2.82088 5.07261,6.70465 9.10394,8.40929 4.56655,1.92963 18.88547,5.96049 7.93399,10.64322 -3.08954,1.31959 -17.56286,0.85953 -15.46485,5.24229 1.7532,3.66167 8.63733,2.44015 2.25411,6.01674 -4.66261,2.61321 -8.35256,2.5512 -13.88491,3.14393 1.64341,2.58148 7.0917,5.95472 9.79354,6.98876 2.00023,0.76723 4.70722,0.43553 6.8687,0.95471 5.45515,1.30661 10.04057,4.18086 15.29502,5.8956 3.96442,1.29362 8.11068,2.74445 11.66339,4.3193 3.36744,1.49409 6.69372,4.69715 10.15722,6.06577 -4.70378,1.96567 -14.34637,5.31295 -20.14804,5.12835 -2.10315,-0.0678 -3.03465,-0.66772 -5.32307,-0.48024 -3.42234,0.28122 -5.9372,1.37872 -9.44531,1.12489 5.83599,2.00174 13.83002,1.06865 18.81857,4.41593 3.87007,2.59591 3.85463,6.90367 9.22573,8.53909 3.59389,1.09317 7.34044,1.0874 11.11102,2.00173 3.03808,0.7384 5.75364,0.91434 8.68365,1.52438 3.18389,0.66051 3.36058,1.77243 4.30236,4.13038 -1.60052,0.90424 -3.52698,1.21719 -5.22528,2.01903 -2.91799,1.3816 -4.45333,4.12028 -7.03338,5.43122 -3.70882,1.88347 -10.60495,3.57658 -14.94506,3.09778 -6.26485,-0.6908 -11.13504,0.53937 -17.55428,0.71532 -3.8735,0.10816 -7.38333,1.48399 -11.25855,1.59648 2.50286,1.91376 4.82387,3.85636 7.63722,5.49611 2.85795,1.66571 6.2374,2.61321 8.71281,4.92069 -1.68801,4.10586 -14.86959,1.93827 -18.66246,1.2244 -3.42234,-0.64609 -6.56849,-0.63744 -10.1658,-0.65042 -5.63185,-0.0216 -9.50192,-1.02106 -14.97423,-1.8878 -16.60735,-2.63196 -28.63613,-14.86157 -46.6553,-12.8209 -0.0326,1.13788 0.64158,1.68302 1.66914,2.11134 z" style="fill:#246d4d;fill-opacity:1;opacity:0.6"/></g></g></g></g></g><path d="M 1738.8284,603.72848 H 6242.7039" id="path67" style="fill:none;stroke:#000000;stroke-width:9.51386;marker-start:url(#start);marker-end:url(#end)"/><path d="M 709.16987,734.66276 H 1718.8284 M 709.16987,3765.3371 h 869.61223 140.0463" id="path64" style="fill:none;stroke:#000000;stroke-width:9.70322;stroke-dasharray:16.172, 16.172" sodipodi:nodetypes="ccccc"/><path d="M 709.16987,734.66276 V 3765.3371" id="path65" style="fill:none;stroke:#000000;stroke-width:14.5548;marker-start:url(#start-5);marker-end:url(#end-8)"/><path d="m 1455.3258,1885.3942 v 225.7722 513.1424" id="path3" style="fill:none;stroke:#000000;stroke-width:7.1868;marker-start:url(#start-5);marker-end:url(#end-8)" sodipodi:nodetypes="ccc"/><path d="m 1455.3258,2624.3088 h 263.5026" id="path4" style="fill:none;stroke:#000000;stroke-width:4.95703;stroke-dasharray:8.26169, 8.26169" sodipodi:nodetypes="cc"/><path d="m 1455.3258,1885.3942 h 263.5026" id="path5" style="fill:none;stroke:#000000;stroke-width:4.95703;stroke-dasharray:8.26169, 8.26169" sodipodi:nodetypes="cc"/><text xml:space="preserve" style="font-size:233.48px;line-height:1.25;font-family:'Manga Temple';-inkscape-font-specification:'Manga Temple';stroke-width:19.4567" x="794.33868" y="2332.0256" id="text5"><tspan sodipodi:role="line" id="tspan5" x="794.33868" y="2332.0256" style="font-style:normal;font-variant:normal;font-weight:normal;font-stretch:normal;font-family:Georgia;-inkscape-font-specification:Georgia;stroke-width:19.4567">A</tspan></text><text xml:space="preserve" style="font-size:146.308px;line-height:1.25;font-family:'Manga Temple';-inkscape-font-specification:'Manga Temple';stroke-width:12.1923" x="1293.0687" y="2306.2522" id="text6"><tspan sodipodi:role="line" id="tspan6" x="1293.0687" y="2306.2522" style="font-style:normal;font-variant:normal;font-weight:normal;font-stretch:normal;font-family:Georgia;-inkscape-font-specification:Georgia;stroke-width:12.1923">C</tspan></text><text xml:space="preserve" style="font-size:95.2656px;line-height:1.25;font-family:'Manga Temple';-inkscape-font-specification:'Manga Temple';stroke-width:7.93878" x="3932.7136" y="700.73187" id="text7"><tspan sodipodi:role="line" id="tspan7" x="3932.7136" y="700.73187" style="font-style:normal;font-variant:normal;font-weight:normal;font-stretch:normal;font-family:Georgia;-inkscape-font-specification:Georgia;stroke-width:7.93878">B</tspan></text><path d="m 6600.0584,1883.347 v 225.7722 513.1424" id="path7" style="fill:none;stroke:#000000;stroke-width:8.13179;marker-start:url(#start-5);marker-end:url(#end-8)" sodipodi:nodetypes="ccc"/><path d="M 6600.0584,2622.2616 H 6262.7039" id="path8" style="fill:none;stroke:#000000;stroke-width:5.60883;stroke-dasharray:9.34802, 9.34802" sodipodi:nodetypes="cc"/><path d="M 6600.0584,1883.347 H 6262.7039" id="path9" style="fill:none;stroke:#000000;stroke-width:5.60883;stroke-dasharray:9.34802, 9.34802" sodipodi:nodetypes="cc"/><text xml:space="preserve" style="font-size:165.546px;line-height:1.25;font-family:'Manga Temple';-inkscape-font-specification:'Manga Temple';stroke-width:13.7955" x="5889.1323" y="2606.2964" id="text9" transform="scale(1.1314903,0.88379016)"><tspan sodipodi:role="line" id="tspan9" x="5889.1323" y="2606.2964" style="font-style:normal;font-variant:normal;font-weight:normal;font-stretch:normal;font-family:Georgia;-inkscape-font-specification:Georgia;stroke-width:13.7955">C</tspan></text><path d="m 3122.8111,3974.8072 h 734.5443" id="path10" style="fill:none;stroke:#000000;stroke-width:3.84214;marker-start:url(#start);marker-end:url(#end)"/><path d="M 3120.626,3974.8072 V 3769.9996" id="path11" style="fill:none;stroke:#000000;stroke-width:4.37021;stroke-dasharray:7.28366, 7.28366" sodipodi:nodetypes="cc"/><path d="M 3857.3554,3974.8072 V 3769.9996" id="path12" style="fill:none;stroke:#000000;stroke-width:4.37021;stroke-dasharray:7.28366, 7.28366" sodipodi:nodetypes="cc"/><text xml:space="preserve" style="font-size:146.308px;line-height:1.25;font-family:'Manga Temple';-inkscape-font-specification:'Manga Temple';stroke-width:12.1923" x="3441.2544" y="4179.3965" id="text12"><tspan sodipodi:role="line" id="tspan12" x="3441.2544" y="4179.3965" style="font-style:normal;font-variant:normal;font-weight:normal;font-stretch:normal;font-family:Georgia;-inkscape-font-specification:Georgia;stroke-width:12.1923">C</tspan></text><path d="m 3122.8111,525.19258 h 734.5443" id="path13" style="fill:none;stroke:#000000;stroke-width:3.84214;marker-start:url(#start);marker-end:url(#end)"/><path d="m 3120.626,525.19258 v 204.8076" id="path14" style="fill:none;stroke:#000000;stroke-width:4.37021;stroke-dasharray:7.28366, 7.28366" sodipodi:nodetypes="cc"/><path d="m 3857.3554,525.19258 v 204.8076" id="path15" style="fill:none;stroke:#000000;stroke-width:4.37021;stroke-dasharray:7.28366, 7.28366" sodipodi:nodetypes="cc"/><text xml:space="preserve" style="font-size:146.308px;line-height:1.25;font-family:'Manga Temple';-inkscape-font-specification:'Manga Temple';stroke-width:12.1923" x="3441.2544" y="435.38989" id="text15"><tspan sodipodi:role="line" id="tspan15" x="3441.2544" y="435.38989" style="font-style:normal;font-variant:normal;font-weight:normal;font-stretch:normal;font-family:Georgia;-inkscape-font-specification:Georgia;stroke-width:12.1923">C</tspan></text></svg>
